<?xml version="1.0" standalone="no"?>
<!DOCTYPE svg PUBLIC "-//W3C//DTD SVG 1.1//EN" "http://www.w3.org/Graphics/SVG/1.1/DTD/svg11.dtd" >
<svg xmlns="http://www.w3.org/2000/svg">
<metadata></metadata>
<defs>
<font id="tradegothicbold_2" horiz-adv-x="1251" >
<font-face units-per-em="2048" ascent="1638" descent="-410" />
<missing-glyph horiz-adv-x="624" />
<glyph horiz-adv-x="0" />
<glyph horiz-adv-x="0" />
<glyph unicode="&#xd;" horiz-adv-x="512" />
<glyph unicode=" "  horiz-adv-x="624" />
<glyph unicode="&#x09;" horiz-adv-x="624" />
<glyph unicode="&#xa0;" horiz-adv-x="624" />
<glyph unicode="!" horiz-adv-x="681" d="M199 0l63 291h283l-64 -291h-282zM352 500l164 979h303l-270 -979h-197z" />
<glyph unicode="&#x22;" horiz-adv-x="681" d="M254 922l123 557h229l-123 -557h-229zM608 922l123 557h230l-123 -557h-230z" />
<glyph unicode="#" d="M221 432l41 184h191l88 246h-164l41 185h188l154 432h192l-151 -432h196l154 432h192l-151 -432h164l-41 -185h-189l-88 -246h164l-41 -184h-190l-154 -432h-192l151 432h-196l-154 -432h-193l152 432h-164zM647 616h197l88 246h-197z" />
<glyph unicode="$" d="M139 244l211 151q37 -86 93.5 -128t140.5 -62l98 444q-82 18 -153.5 53t-121 86.5t-70 119t-1.5 153.5q23 102 76 180t124.5 130t157.5 79t172 29l33 147h152l-33 -147q119 -4 207 -53.5t168 -149.5l-195 -158q-49 59 -97 101.5t-128 54.5l-90 -410q100 -33 175 -72.5 t121 -95t59 -129t-7 -170.5q-23 -100 -75 -173.5t-123.5 -122t-160 -73t-182.5 -28.5l-55 -246h-152l56 246q-133 14 -235.5 71.5t-164.5 172.5zM569 1079q-16 -72 26 -107.5t144 -66.5l82 369q-96 -6 -162.5 -50t-89.5 -145zM735 205q41 0 82 8t78 29.5t64.5 57.5t39.5 91 q20 90 -29.5 138.5t-146.5 74.5z" />
<glyph unicode="%" horiz-adv-x="1820" d="M312.5 967.5q-13.5 66.5 2.5 142.5t60.5 142.5t105 116.5t134 80t151.5 30t138.5 -30t99 -80t52 -116.5t-2.5 -142.5t-59.5 -142.5t-105 -116.5t-135 -80t-151.5 -30t-138.5 30t-99 80t-52 116.5zM399 -20l1186 1519h174l-1186 -1519h-174zM516 1110q-14 -66 24 -117 t107 -51q35 0 69 14.5t61.5 37t48 53t26.5 63.5q14 66 -23.5 117t-107.5 51q-35 0 -67.5 -14.5t-61.5 -37t-48.5 -53t-27.5 -63.5zM1092.5 226.5q-13.5 66.5 3.5 142.5q16 76 59 142.5t104.5 116.5t135 79.5t151.5 29.5t138.5 -29.5t99.5 -79.5t52 -117t-3 -142 q-16 -76 -60 -142.5t-104.5 -117t-134.5 -80t-152 -29.5t-138 29.5t-99 80t-52.5 117zM1296 369q-14 -66 24 -117t107 -51q35 0 68 14t61.5 36.5t48 53.5t27.5 64q14 66 -23.5 117t-107.5 51q-35 0 -68.5 -14.5t-61.5 -37t-48 -53.5t-27 -63z" />
<glyph unicode="&#x26;" horiz-adv-x="1366" d="M164.5 218q-17.5 81 7.5 192q31 137 120 227t212 162q-41 90 -55.5 169t10.5 187q18 78 60 141.5t101.5 108.5t134 69.5t154.5 24.5q74 0 132.5 -25.5t96.5 -69.5t52 -104.5t0 -130.5q-16 -72 -54 -130t-90.5 -107t-113 -92t-119.5 -84q41 -82 90 -157t105 -136 q59 66 108 135.5t92 142.5l213 -61q-57 -94 -119.5 -185.5t-142.5 -177.5q39 -43 86 -70.5t101 -29.5l-52 -237q-53 0 -93 5t-75.5 21.5t-74.5 47t-90 81.5q-94 -78 -198 -116.5t-212 -38.5q-104 0 -185 25.5t-132.5 78.5t-69 134zM442 422q-10 -41 0.5 -78t34 -65.5t58 -45 t77.5 -16.5q55 0 110.5 20.5t104.5 61.5q-74 70 -129 148.5t-94 168.5q-63 -43 -104.5 -82.5t-57.5 -111.5zM694 1047.5q8 -60.5 31 -113.5q37 25 75 52.5t69.5 58t54 64.5t30.5 71q12 61 -9 106t-85 45q-43 0 -93.5 -40.5t-66.5 -116.5q-14 -66 -6 -126.5z" />
<glyph unicode="'" horiz-adv-x="454" d="M317 922l123 557h230l-123 -557h-230z" />
<glyph unicode="(" horiz-adv-x="681" d="M216 424.5q5 107.5 34 239.5q29 131 72 239.5t100 206.5t130 192.5t161 196.5h248q-193 -193 -312 -397.5t-170 -437.5t-23.5 -438.5t134.5 -397.5h-248q-43 102 -73.5 197.5t-44 193.5t-8.5 205.5z" />
<glyph unicode=")" horiz-adv-x="681" d="M14 -172q193 193 312.5 397.5t171.5 438.5q51 233 23.5 438t-136.5 397h248q43 -102 74.5 -196.5t45 -192.5t8.5 -206.5t-34 -239.5t-72 -239t-100 -206t-130 -193.5t-163 -197.5h-248z" />
<glyph unicode="*" horiz-adv-x="1024" d="M385 1128l94 183l242 -140l10 11l2 297h203l-119 -299l8 -11l295 152l21 -184l-310 -47l170 -218l-176 -118l-77 272l-15 -2l-190 -268l-129 108l264 215l-2 13z" />
<glyph unicode="+" horiz-adv-x="1228" d="M176 422l49 221h422l92 422h222l-93 -422h422l-49 -221h-422l-94 -422h-221l94 422h-422z" />
<glyph unicode="," horiz-adv-x="624" d="M121 -307l172 307h-123l63 291h283l-63 -291l-199 -307h-133z" />
<glyph unicode="-" horiz-adv-x="681" d="M184 422l49 221h502l-49 -221h-502z" />
<glyph unicode="." horiz-adv-x="624" d="M170 0l63 291h283l-63 -291h-283z" />
<glyph unicode="/" horiz-adv-x="569" d="M-61 -20l796 1519h223l-796 -1519h-223z" />
<glyph unicode="0" d="M213 441q2 138 37 298t95.5 298.5t147.5 240.5t202.5 161.5t260.5 59.5q147 0 236.5 -59.5t131.5 -161.5t40 -240.5t-37 -298.5t-95.5 -298t-147.5 -240.5t-202.5 -161.5t-260.5 -59q-147 0 -236.5 59t-131.5 161.5t-40 240.5zM480 484q-3 -103 18.5 -165.5t65.5 -90 t106 -27.5q59 0 115.5 27.5t106.5 90t93 166t76 254.5q33 152 36 255.5t-18.5 166t-65.5 90t-106 27.5q-59 0 -115.5 -27.5t-106.5 -90t-93 -166t-76 -255.5t-36 -255z" />
<glyph unicode="1" d="M299 0l45 205h229l228 1020h-262l36 172q104 4 193.5 28.5t151.5 73.5h206l-286 -1294h227l-45 -205h-723z" />
<glyph unicode="2" d="M115 0l53 244q25 57 97.5 122.5t168.5 135t203.5 142.5t202 145.5t161 144.5t80.5 139q23 98 -24 151.5t-150 53.5q-111 0 -190.5 -65.5t-126.5 -168.5l-225 52q29 86 89 159.5t140 128t174 85t193 30.5q98 0 179 -27.5t135 -82t74.5 -133t-1.5 -183.5 q-29 -135 -110 -236.5t-197.5 -194.5t-265 -189.5t-314.5 -223.5h700l-51 -229h-995z" />
<glyph unicode="3" d="M123 266l239 121q33 -92 98.5 -139t172.5 -47q49 0 98 14t91 43t73 71t43 95q20 90 -13.5 140t-95 75t-138.5 30t-144 5l49 221q82 0 155.5 7t133 29.5t99.5 63.5t54 107q18 80 -31 128t-143 48t-170 -44t-145 -104l-139 160q133 115 257 162t238 47q102 0 185.5 -24.5 t138.5 -72.5t77.5 -119t2.5 -165q-25 -111 -100.5 -191.5t-194.5 -127.5q125 -41 173 -138.5t17 -236.5q-27 -117 -90 -201t-149 -138t-185.5 -79.5t-197.5 -25.5q-78 0 -152 18t-134 54t-105.5 90.5t-67.5 123.5z" />
<glyph unicode="4" d="M125 340l57 260l826 879h288l-206 -934h208l-45 -205h-209l-75 -340h-254l76 340h-666zM375 545h461l145 659h-4z" />
<glyph unicode="5" d="M168 256l246 115q16 -78 82.5 -122t142.5 -46q141 -4 226 81t116 224q25 115 -24.5 192.5t-168.5 77.5q-78 0 -142 -35.5t-109 -91.5l-203 41l229 787h799l-51 -230h-598l-95 -336q43 37 109 61.5t186 24.5q100 0 172 -43t115 -112.5t55.5 -157.5t-8.5 -178 q-27 -121 -84 -219.5t-141 -167t-193.5 -105t-242.5 -36.5q-176 0 -280.5 75.5t-137.5 200.5z" />
<glyph unicode="6" d="M218 356q-11 127 26 295q43 195 120.5 351.5t184 267t238 170t280.5 59.5q109 0 188.5 -28.5t153.5 -81.5l-164 -213q-37 41 -91 71.5t-136 30.5q-74 0 -148.5 -35t-138 -96.5t-112 -143t-68.5 -176.5q86 63 171 91t185 28q98 0 173 -34.5t122 -98t62.5 -152t-7.5 -194.5 q-27 -117 -87 -207t-144 -152.5t-186.5 -95t-212.5 -32.5q-117 0 -205 41.5t-140.5 124.5t-63.5 210zM478 395.5q9 -67.5 40 -110.5t77 -63.5t101 -20.5q106 0 187 69.5t104 186.5q31 123 -18 195.5t-176 72.5q-178 0 -304 -168q-20 -94 -11 -161.5z" />
<glyph unicode="7" d="M231 0l875 1249h-711l51 230h1014l-35 -154l-901 -1325h-293z" />
<glyph unicode="8" d="M160 381q35 154 136 250t251 155q-96 59 -145.5 136t-20.5 208q20 84 69.5 153t124 117t172 73.5t209.5 25.5q113 0 199 -25.5t139.5 -73.5t73.5 -117t0 -153q-29 -131 -111.5 -207.5t-205.5 -136.5q123 -59 182 -155t24 -250q-20 -90 -77.5 -165t-143.5 -127 t-192.5 -80.5t-222.5 -28.5q-119 0 -212.5 28.5t-156 80.5t-88 127t-4.5 165zM430 399q-20 -98 37.5 -156.5t198.5 -58.5t225 58.5t104 156.5q12 49 -15.5 97.5t-69.5 86.5t-87 61.5t-69 23.5q-25 0 -74 -20.5t-100.5 -57.5t-94.5 -86t-55 -105zM647 1126q-12 -51 4.5 -92 t45 -70.5t64.5 -46t64 -16.5q27 0 71 20.5t87 52.5t77 72.5t42 79.5q16 74 -25 121t-168 47q-123 0 -184 -47t-78 -121z" />
<glyph unicode="9" d="M145 90l164 213q37 -41 91.5 -71.5t136.5 -30.5q74 0 148.5 34.5t138 96t111.5 143.5t69 176q-86 -63 -171 -91t-186 -28q-98 0 -173 35t-122 98.5t-62.5 151.5t9.5 195q25 117 85 207t144 152.5t186.5 95t213.5 32.5q117 0 205 -42t140 -125t63.5 -209t-25.5 -296 q-43 -193 -121 -349t-183.5 -267t-237.5 -171t-282 -60q-109 0 -188.5 28.5t-153.5 81.5zM567 1022q-31 -123 18.5 -195.5t176.5 -72.5q178 0 303 168q20 94 11 161.5t-39.5 110.5t-77 63.5t-101.5 20.5q-106 0 -187 -69.5t-104 -186.5z" />
<glyph unicode=":" horiz-adv-x="624" d="M170 0l63 291h283l-63 -291h-283zM307 614l64 291h282l-63 -291h-283z" />
<glyph unicode=";" horiz-adv-x="624" d="M121 -307l172 307h-123l63 291h283l-63 -291l-199 -307h-133zM307 614l64 291h282l-63 -291h-283z" />
<glyph unicode="&#x3c;" horiz-adv-x="1228" d="M178 438l43 189l1165 454l-51 -227l-831 -322l690 -321l-51 -227z" />
<glyph unicode="=" horiz-adv-x="1228" d="M125 197l49 221h1065l-49 -221h-1065zM225 647l49 221h1065l-49 -221h-1065z" />
<glyph unicode="&#x3e;" horiz-adv-x="1228" d="M78 -16l51 227l834 321l-693 322l52 227l964 -454l-43 -189z" />
<glyph unicode="?" horiz-adv-x="909" d="M268 0l64 291h282l-63 -291h-283zM283 1180q72 154 199.5 236.5t291.5 82.5q76 0 138.5 -21.5t104.5 -62.5t57.5 -102.5t-1.5 -141.5q-23 -102 -85 -174.5t-132 -138.5t-131 -132.5t-80 -152.5l-16 -75h-226l25 112q20 88 77.5 164t123.5 146q63 70 118.5 134t69.5 130 q10 47 -21.5 78.5t-82.5 31.5q-37 0 -70 -16t-59.5 -42t-48 -57.5t-31.5 -64.5z" />
<glyph unicode="@" horiz-adv-x="1638" d="M250 434q-31 139 6 303q35 162 126 301.5t217 241.5t277.5 160.5t307.5 58.5q133 0 247.5 -44t193.5 -124t113 -194.5t1 -255.5q-37 -168 -124 -282t-185.5 -181.5t-189.5 -96t-136 -28.5q-43 0 -69.5 25.5t-16.5 78.5l-4 2q-47 -43 -107.5 -74.5t-113.5 -31.5 q-66 0 -118 28.5t-86 78t-45.5 115t3.5 136.5q20 92 69.5 179.5t118 155t153.5 108.5t179 41q74 0 128 -31t83 -96l45 102h180l-211 -500q-6 -16 -15 -35.5t-13 -37.5q-10 -45 18 -45q35 0 75 21.5t79 62t70.5 103t49.5 144.5q27 123 8.5 217.5t-74.5 158t-146.5 96 t-202.5 32.5q-125 0 -236.5 -45t-201 -124t-152 -186.5t-90.5 -234.5q-31 -135 -11.5 -242.5t80 -184.5t157.5 -117.5t224 -40.5q117 0 226.5 38.5t199.5 104.5h185q-139 -154 -309.5 -234.5t-354.5 -80.5q-158 0 -286 56t-209.5 157.5t-112.5 240.5zM778 682 q-16 -74 13.5 -123t101.5 -49q49 0 93 21.5t81 55.5t62.5 79t35.5 90q16 74 -16.5 121t-104.5 47q-47 0 -90 -19.5t-78.5 -52.5t-61.5 -77t-36 -93z" />
<glyph unicode="A" d="M27 0l753 1481h353l92 -1481h-281l-10 319h-467l-160 -319h-280zM580 553h344l-25 643h-4z" />
<glyph unicode="B" horiz-adv-x="1366" d="M160 0l327 1479h549q111 0 197 -19.5t141.5 -62.5t77.5 -113q13 -40 14 -89q0 -37 -8 -79q-27 -117 -97.5 -203t-203.5 -133q68 -29 110 -62.5t61.5 -77.5t19.5 -105.5t-19 -145.5q-18 -86 -65 -157.5t-124 -123t-185.5 -80t-249.5 -28.5h-545zM494 229h282 q123 0 191.5 54.5t91.5 160.5q9 38 9 70q0 56 -28 90q-44 54 -170 55h-282zM639 889h283q102 0 163.5 51t79.5 129q5 23 5 43q0 50 -28 86q-38 51 -141 51h-282z" />
<glyph unicode="C" d="M225 739q41 182 112 323.5t168 238t219 147.5t263 51q213 0 317.5 -95t112.5 -294l-268 -61q-10 94 -63.5 153.5t-157.5 59.5q-143 0 -253 -130.5t-167 -392.5q-34 -146 -35 -251q0 -271 229 -271q49 0 90.5 10.5t81 35t80.5 66.5t86 107l248 -69q-111 -193 -272.5 -290 t-364.5 -97q-285 0 -395 198q-64 115 -65 285q0 123 34 276z" />
<glyph unicode="D" horiz-adv-x="1366" d="M160 0l327 1479h490q147 0 259 -42t180 -133q68 -90 86 -229q5 -40 5 -85q0 -111 -30 -251q-45 -197 -124 -336t-186.5 -229t-238.5 -132t-279 -42h-489zM496 238h188q121 0 208 40.5t146.5 110.5t96 161t59.5 189q23 97 26 189v17q0 81 -27 145q-30 70 -97.5 110.5 t-190.5 40.5h-188z" />
<glyph unicode="E" d="M172 0l328 1479h979l-54 -238h-696l-78 -352h506l-53 -238h-506l-90 -413h719l-53 -238h-1002z" />
<glyph unicode="F" horiz-adv-x="1138" d="M160 0l327 1479h943l-54 -238h-659l-78 -352h494l-54 -238h-493l-144 -651h-282z" />
<glyph unicode="G" horiz-adv-x="1366" d="M192 426q-1 18 -1 37q0 119 30 254q31 141 91.5 281.5t156.5 251t230.5 180t310.5 69.5q111 0 192.5 -28.5t137 -79t86 -119t36.5 -150.5l-276 -69q-27 111 -83 160t-167 49q-158 0 -267.5 -145.5t-164.5 -391.5q-25 -115 -25 -207q0 -94 26 -164q52 -137 200 -137 q70 0 131 21.5t109 60.5t83 93t51 118h-280l53 238h553l-166 -748h-205l33 152q-111 -98 -208 -135t-214 -37q-152 0 -250 56t-148 155.5t-55 234.5z" />
<glyph unicode="H" horiz-adv-x="1478" d="M172 0l328 1479h282l-131 -590h570l131 590h282l-327 -1479h-283l141 635h-569l-141 -635h-283z" />
<glyph unicode="I" horiz-adv-x="681" d="M199 0l327 1479h283l-328 -1479h-282z" />
<glyph unicode="J" horiz-adv-x="909" d="M29 178l227 146q23 -61 52.5 -84t76.5 -23q51 0 93 39t65 137l239 1086h283l-240 -1080q-45 -209 -170 -314t-321 -105q-119 0 -191.5 52t-113.5 146z" />
<glyph unicode="K" horiz-adv-x="1366" d="M160 0l327 1479h283l-147 -662h-5l646 662h325l-542 -555l282 -924h-313l-211 702l-264 -258l-99 -444h-282z" />
<glyph unicode="L" horiz-adv-x="1138" d="M160 0l327 1479h283l-274 -1241h643l-54 -238h-925z" />
<glyph unicode="M" horiz-adv-x="1705" d="M166 0l328 1479h397l55 -1033h4l516 1033h402l-328 -1479h-246l258 1163h-4l-590 -1163h-215l-69 1163h-4l-258 -1163h-246z" />
<glyph unicode="N" horiz-adv-x="1478" d="M166 0l328 1479h294l359 -1008h4l223 1008h266l-327 -1479h-273l-370 1053h-4l-234 -1053h-266z" />
<glyph unicode="O" horiz-adv-x="1366" d="M225 739q82 365 284 562.5t505 197.5q304 0 418 -199q67 -117 67 -291q0 -121 -33 -270q-80 -365 -282.5 -562t-505.5 -197t-418 198q-68 117 -68 291q0 121 33 270zM500 347q53 -130 229 -130t287 130t168 392q30 137 30 238q0 93 -25 155q-52 130 -226 130 q-176 0 -287 -130.5t-168 -392.5q-33 -140 -33 -243q0 -89 25 -149z" />
<glyph unicode="P" d="M139 0l328 1479h541q121 0 211 -26t146 -79q57 -53 75 -137q8 -35 7 -75q0 -57 -15 -124q-51 -229 -215 -334.5t-404 -105.5h-258l-133 -598h-283zM606 827h225q160 0 228.5 56.5t89.5 154.5q9 37 9 68q0 10 -1 20q-4 39 -29.5 67t-74.5 42t-129 14h-226z" />
<glyph unicode="Q" horiz-adv-x="1366" d="M225 739q82 365 284 562.5t505 197.5t418 -199q67 -116 67 -290q0 -122 -33 -271q-76 -344 -268 -544q68 -66 172 -68l-53 -238q-70 0 -115 7.5t-75.5 26t-57.5 50t-61 80.5q-143 -73 -325 -73h-5q-303 0 -418 198q-68 118 -68 291q0 121 33 270zM500 347 q53 -130 229 -130q106 0 189 49q-23 47 -56 82t-92 47l55 252q106 -10 165 -58t97 -130q31 55 54.5 124.5t42.5 155.5q30 137 30 238q0 92 -25 155q-52 130 -226 130q-176 0 -287 -130.5t-168 -392.5q-33 -140 -33 -243q0 -89 25 -149z" />
<glyph unicode="R" horiz-adv-x="1366" d="M160 0l327 1479h590q127 0 208 -34t125 -93.5t54 -139.5q3 -26 2 -54q0 -56 -12 -118q-31 -137 -121 -239.5t-235 -141.5l180 -659h-313l-146 602h-244l-133 -602h-282zM627 831h209q166 0 238.5 52.5t96.5 156.5q7 33 7 61q0 59 -33 95q-49 52 -168 53h-258z" />
<glyph unicode="S" d="M147 330l256 102q27 -104 86.5 -167.5t184.5 -63.5q106 0 187 44t106 152q4 19 4 36q0 50 -34 85q-46 47 -122 86t-167 76t-163.5 89t-112.5 127q-25 47 -25 109q0 37 9 80q23 98 79.5 176t133 130.5t168.5 80t189 27.5q180 0 298.5 -86t149.5 -248l-276 -80 q-12 86 -66.5 139.5t-154.5 53.5q-92 0 -160 -39t-86 -125q-3 -14 -3 -28q0 -45 36 -77q47 -42 123.5 -78t166.5 -73t163 -91t112 -134q23 -47 23 -108q0 -42 -11 -91q-51 -229 -211 -341.5t-407 -112.5q-90 0 -171 24.5t-144.5 69.5t-105.5 110.5t-55 145.5z" />
<glyph unicode="T" horiz-adv-x="1138" d="M317 1243l52 238h1056l-51 -238h-387l-276 -1243h-283l277 1243h-388z" />
<glyph unicode="U" horiz-adv-x="1478" d="M280 282q-9 41 -8 90q0 80 23 181l205 926h282l-207 -938q-17 -76 -17 -133q0 -77 32 -119q56 -72 196 -72q143 0 230.5 71.5t128.5 252.5l207 938h282l-204 -926q-37 -162 -108 -271.5t-164 -177t-201.5 -96t-221.5 -28.5t-209 28.5t-160 96t-86 177.5z" />
<glyph unicode="V" horiz-adv-x="1138" d="M348 1479h279l20 -1090h4l516 1090h279l-719 -1479h-315z" />
<glyph unicode="W" horiz-adv-x="1705" d="M350 0l19 1479h264l-35 -998h4l432 998h291l-27 -998h5l423 998h265l-635 -1479h-287l18 1053h-4l-446 -1053h-287z" />
<glyph unicode="X" horiz-adv-x="1138" d="M16 0l568 758l-215 721h307l121 -457l321 457h307l-534 -721l231 -758h-307l-135 502l-356 -502h-308z" />
<glyph unicode="Y" horiz-adv-x="1138" d="M348 1479h295l125 -586l383 586h295l-604 -889l-131 -590h-283l131 590z" />
<glyph unicode="Z" horiz-adv-x="1138" d="M33 0l53 240l911 1001h-643l54 238h999l-49 -226l-940 -1015h721l-54 -238h-1052z" />
<glyph unicode="[" horiz-adv-x="681" d="M74 -152l360 1631h477l-26 -123h-256l-307 -1385h260l-27 -123h-481z" />
<glyph unicode="\" horiz-adv-x="569" d="M274 1499h224l125 -1519h-224z" />
<glyph unicode="]" horiz-adv-x="681" d="M61 -152l27 123h260l307 1385h-256l27 123h477l-360 -1631h-482z" />
<glyph unicode="^" horiz-adv-x="1228" d="M301 711l539 768h204l199 -768h-225l-127 538l-367 -538h-223z" />
<glyph unicode="_" horiz-adv-x="1024" d="M-57 -256l22 102h1024l-22 -102h-1024z" />
<glyph unicode="`" horiz-adv-x="569" d="M274 1499h316l127 -299h-209z" />
<glyph unicode="a" horiz-adv-x="1024" d="M89 156q-3 19 -3 38q0 33 8 68q41 182 212 281.5t493 136.5l18 90q4 17 4 32q-1 38 -27 62q-36 33 -104 33q-90 0 -151.5 -40t-110.5 -91l-137 125q35 43 86 79t111 62q58 27 122 41q56 12 107 12h14q109 -2 180.5 -24.5t110.5 -72.5t45 -131q1 -15 1 -32q0 -72 -21 -170 l-111 -501q-10 -41 -14 -80q-2 -20 -2 -38t2 -36h-248l4 92q-88 -53 -172 -82.5t-184 -29.5q-72 0 -121 23.5t-77 63t-35 89.5zM356 293q-5 -20 -5 -37q1 -33 19 -55q28 -33 81 -33q31 0 65.5 11t69.5 28.5t67.5 37t55.5 36.5l51 229q-66 -12 -133.5 -26.5t-122.5 -38 t-95 -60.5t-53 -92z" />
<glyph unicode="b" horiz-adv-x="1138" d="M131 0l328 1479h254l-113 -512h4q25 25 59.5 47t74.5 37.5t79 24.5t70 9q104 0 173.5 -45t106.5 -118.5t45 -167.5q2 -25 1 -50q0 -70 -15 -143q-29 -125 -79 -231.5t-120.5 -184t-159.5 -121.5t-196 -44q-86 0 -146.5 34.5t-113.5 100.5l-53 -115h-199zM446 279 q16 -14 31 -32t33 -31t45 -22.5t68 -9.5q115 0 195.5 89t119.5 259q17 80 17 142q0 70 -22 118q-42 90 -157 89q-61 0 -115.5 -28t-99.5 -62z" />
<glyph unicode="c" horiz-adv-x="1024" d="M148 304q-2 25 -2 52q0 82 22 176q27 127 81 229.5t130 174.5t171 110.5t202 38.5q152 0 247 -74.5t111 -209.5l-229 -82q-8 35 -19.5 63.5t-30 51t-48 35t-76.5 12.5q-106 0 -176 -84t-109 -265q-22 -98 -23 -168q0 -58 16 -96q34 -84 146 -84q84 0 146.5 49.5 t115.5 120.5l170 -108q-111 -143 -225 -206q-109 -60 -247 -60h-13q-109 0 -186.5 38.5t-120.5 111t-53 174.5z" />
<glyph unicode="d" horiz-adv-x="1138" d="M165 330v20q0 98 25 211q20 98 69.5 192.5t120.5 168t160 118.5t191 45q33 0 69 -9t67.5 -24.5t57 -38t40.5 -46.5h4l112 512h254l-327 -1479h-215l12 115q-82 -66 -157 -100.5t-161 -34.5q-106 0 -175.5 44t-106.5 122t-40 184zM438 532q-19 -82 -18 -145q0 -68 21 -114 q42 -89 157 -89q41 0 70.5 9.5t55.5 22.5t47.5 30.5t43.5 32.5l115 512q-31 35 -73 62.5t-105 27.5q-115 0 -196 -89.5t-118 -259.5z" />
<glyph unicode="e" horiz-adv-x="1024" d="M148 304q-2 25 -2 52q0 82 22 176q27 127 81 229.5t130 174.5t171 110.5t202 38.5q106 0 177.5 -39.5t111.5 -107.5q39 -68 49 -157q3 -28 4 -56q0 -63 -15 -129l-24 -104h-643q-12 -62 -12 -111q0 -15 1 -29q5 -58 26.5 -95.5t57 -55t80.5 -17.5q90 0 147.5 36t118.5 91 l158 -114q-98 -115 -219 -166t-274 -51q-104 0 -179 38.5t-117 111t-52 174.5zM451 664h409q7 37 7 68q1 63 -27 104q-40 61 -133 61q-92 0 -161 -61.5t-95 -171.5z" />
<glyph unicode="f" horiz-adv-x="681" d="M172 0l190 860h-147l45 205h146l28 131q39 172 126 237.5t243 65.5h168l-45 -205h-70q-80 0 -118 -26.5t-50 -87.5l-26 -115h215l-46 -205h-215l-190 -860h-254z" />
<glyph unicode="g" horiz-adv-x="1024" d="M-6 -135q12 49 36.5 86t58.5 61.5t71 36.5t71 12v5q-16 12 -39.5 24t-45 30.5t-32.5 46.5q-6 14 -6 33q0 17 5 38q8 39 34.5 71.5t58.5 58t64.5 42t51.5 22.5q-55 53 -86 118q-19 40 -19 93q0 33 8 72q16 70 57.5 136.5t106 118.5t150.5 83.5t188 31.5q70 0 136.5 -25.5 t105.5 -68.5q49 49 115 74q54 21 126 21q14 0 29 -1l-37 -172q-45 0 -90 -3t-80 -21q18 -35 24 -81q3 -15 3 -31q0 -35 -10 -77q-33 -150 -156 -247t-322 -97q-84 0 -144 -9t-71 -56q-1 -6 -1 -12q0 -33 41 -45q48 -15 125 -20t167 -10t162 -32t112 -83q24 -35 24 -89 q0 -34 -9 -74q-12 -57 -54 -113.5t-113 -101.5t-170 -72.5t-226 -27.5q-215 0 -331 63q-94 52 -94 145q0 22 5 46zM236 -102q-3 -12 -3 -23q0 -44 44 -67q55 -29 215 -29q61 0 106 13t74.5 31.5t45 39t19.5 35.5q4 18 -7 39.5t-44 40t-92.5 30.5t-151.5 12q-51 0 -89 -13 t-62.5 -31.5t-37.5 -40t-17 -37.5zM461 721q-5 -21 -5 -41q0 -48 28 -84q40 -51 122 -51q72 0 134.5 51t78.5 125q5 22 5 41q0 48 -28 84q-38 51 -112 51q-82 0 -144.5 -51t-78.5 -125z" />
<glyph unicode="h" horiz-adv-x="1138" d="M131 0l328 1479h254l-117 -529q70 49 156 92t180 43q162 0 218 -96q34 -58 34 -140q0 -54 -15 -120l-161 -729h-254l153 692q13 55 13 93q0 37 -12 56q-24 40 -91 40q-82 0 -151.5 -38t-110.5 -75l-170 -768h-254z" />
<glyph unicode="i" horiz-adv-x="569" d="M158 0l235 1065h254l-235 -1065h-254zM438 1262l51 237h254l-51 -237h-254z" />
<glyph unicode="j" horiz-adv-x="569" d="M-76 -373l45 207q20 -2 38 -4t44 -2q45 0 76 26.5t49 104.5l244 1106h254l-254 -1147q-37 -164 -123 -235.5t-244 -71.5q-39 0 -70.5 4t-58.5 12zM465 1262l51 237h254l-51 -237h-254z" />
<glyph unicode="k" horiz-adv-x="1024" d="M131 0l328 1479h254l-183 -826h9l403 412h291l-402 -397l189 -668h-270l-129 477l-164 -149l-72 -328h-254z" />
<glyph unicode="l" horiz-adv-x="569" d="M158 0l327 1479h254l-327 -1479h-254z" />
<glyph unicode="m" horiz-adv-x="1705" d="M131 0l236 1065h231l-25 -115q86 66 163 100.5t186 34.5q84 0 147.5 -38.5t81.5 -116.5q80 66 174 110.5t225 44.5q43 0 86 -14t74 -50q31 -35 42 -97q4 -22 4 -48q0 -48 -13 -110l-170 -766h-254l164 743q7 28 7 50q0 30 -12 50q-22 34 -92 38q-49 0 -116.5 -37 t-120.5 -78l-170 -766h-254l164 743q7 28 7 50q0 30 -12 50q-22 34 -91 38q-49 0 -117 -37t-121 -78l-170 -766h-254z" />
<glyph unicode="n" horiz-adv-x="1138" d="M131 0l236 1065h233l-25 -115q82 49 172.5 92t184.5 43q162 0 218 -96q34 -58 34 -140q0 -54 -15 -120l-161 -729h-254l153 692q13 55 13 93q0 37 -12 56q-24 40 -91 40q-82 0 -151.5 -38t-110.5 -75l-170 -768h-254z" />
<glyph unicode="o" horiz-adv-x="1024" d="M148 303q-2 25 -2 52q0 81 22 177q27 127 81 229.5t130 174.5t171 110.5t202 38.5q109 0 186.5 -38.5t121.5 -110.5t52 -174q2 -24 2 -50q0 -83 -20 -180q-29 -127 -83.5 -229t-130 -174t-170 -110.5t-202.5 -38.5q-109 0 -186.5 38.5t-120.5 110.5t-53 174zM414 268 q32 -84 139 -84q106 0 176 84t111 264q21 98 21 167q0 59 -15 97q-33 84 -139 85q-106 0 -176 -84t-109 -265q-23 -100 -23 -171q1 -56 15 -93z" />
<glyph unicode="p" horiz-adv-x="1138" d="M45 -389l322 1454h243l-20 -98q68 53 139.5 85.5t157.5 32.5q106 0 177 -44t106.5 -121.5t38.5 -183.5v-23q0 -97 -23 -209q-23 -98 -72 -192.5t-119.5 -168t-160 -118.5t-191.5 -45q-33 0 -67.5 9t-67.5 24.5t-58.5 38t-37.5 46.5h-4l-109 -487h-254zM446 274 q31 -35 73 -62.5t104 -27.5q115 0 195.5 89t119.5 259q17 80 17 142q0 70 -22 118q-42 89 -157 89q-41 0 -70.5 -9.5t-54 -22.5t-46 -29.5t-46.5 -33.5z" />
<glyph unicode="q" horiz-adv-x="1138" d="M163 312q-2 22 -2 45q0 73 17 147q27 125 77 231.5t120.5 184t161 121.5t194.5 44q88 0 147.5 -34.5t112.5 -100.5l53 115h199l-321 -1454h-254l108 487h-4q-25 -25 -60.5 -47t-74.5 -37.5t-78 -24.5t-72 -9q-102 0 -171.5 45t-107.5 118.5t-45 168.5zM438 532 q-19 -82 -19 -145q0 -68 22 -114q42 -89 157 -89q61 0 115.5 28t101.5 62l113 512q-16 16 -30.5 33t-33 30t-45 22.5t-67.5 9.5q-115 0 -196 -89.5t-118 -259.5z" />
<glyph unicode="r" horiz-adv-x="681" d="M115 0l235 1065h234l-39 -182h4q68 96 147.5 147t194.5 55l-60 -268q-8 2 -19 2h-24q-49 0 -97 -23.5t-87 -53t-64.5 -57.5t-27.5 -38l-143 -647h-254z" />
<glyph unicode="s" horiz-adv-x="909" d="M88 195l199 127q31 -61 81 -107.5t132 -46.5q68 0 117 34t61 87q2 11 2 20q0 31 -24 53q-32 28 -87 51t-118.5 48.5t-113.5 64.5q-50 38 -77 98q-15 33 -15 78q0 34 9 74q16 74 58 132.5t99.5 97t126 59t136.5 20.5q109 0 199 -39.5t141 -121.5l-191 -140 q-29 41 -70.5 77t-103.5 36q-74 0 -114.5 -28.5t-51.5 -75.5q-2 -10 -2 -20q0 -32 25 -53q33 -28 87 -50.5t118.5 -46t114.5 -63.5t76 -102q13 -33 14 -75q0 -38 -11 -84q-18 -82 -61 -142.5t-103.5 -100.5t-136.5 -58t-160 -18q-129 0 -219 55t-137 160z" />
<glyph unicode="t" horiz-adv-x="681" d="M215 860l45 205h148l77 352h254l-77 -352h208l-45 -205h-209l-133 -602q-10 -43 9.5 -58.5t66.5 -15.5q29 0 60.5 7.5t60.5 13.5l-45 -209q-55 -6 -104.5 -11t-100.5 -5q-143 0 -188 66q-29 43 -29 106q0 34 8 73l141 635h-147z" />
<glyph unicode="u" horiz-adv-x="1138" d="M205 336l162 729h254l-154 -692q-11 -53 -12 -90q0 -38 13 -59q24 -40 89 -40q84 0 152.5 38t109.5 75l170 768h254l-235 -1065h-234l25 115q-82 -49 -172 -92t-185 -43q-162 0 -217 96q-34 59 -34 143q0 53 14 117z" />
<glyph unicode="v" horiz-adv-x="909" d="M256 1065h254l16 -721h4l340 721h254l-540 -1065h-267z" />
<glyph unicode="w" horiz-adv-x="1366" d="M256 1065h242l-2 -664h4l301 664h235v-664h4l299 664h242l-510 -1065h-229l-11 664h-4l-303 -664h-229z" />
<glyph unicode="x" horiz-adv-x="909" d="M8 0l436 553l-188 512h281l84 -295l217 295h274l-412 -512l201 -553h-270l-105 332l-245 -332h-273z" />
<glyph unicode="y" horiz-adv-x="909" d="M-63 -381l45 209q29 -6 53 -7t51 -1q68 0 111 19.5t77 64.5q27 39 44.5 65.5t23.5 59.5q6 29 2 61.5t-6 65.5l-84 909h256l31 -655h4l327 655h254l-571 -1067q-68 -115 -125 -189.5t-113.5 -118.5t-119 -61.5t-140.5 -17.5q-47 0 -72.5 2t-47.5 6z" />
<glyph unicode="z" horiz-adv-x="909" d="M37 0l41 180l663 680h-471l45 205h789l-39 -180l-664 -680h517l-46 -205h-835z" />
<glyph unicode="{" horiz-adv-x="681" d="M150 602l26 123q63 0 111.5 36t62.5 97l88 397q29 127 115 185.5t201 58.5h145l-27 -123h-100q-43 0 -71.5 -30.5t-36.5 -71.5l-86 -389q-23 -102 -70 -150.5t-135 -68.5v-4q78 -20 103.5 -68.5t2.5 -151.5l-86 -389q-10 -41 5.5 -71.5t58.5 -30.5h100l-29 -123h-145 q-113 0 -174.5 58.5t-32.5 185.5l88 397q12 61 -20.5 97t-93.5 36z" />
<glyph unicode="|" horiz-adv-x="454" d="M113 -20l336 1519h221l-336 -1519h-221z" />
<glyph unicode="}" horiz-adv-x="681" d="M76 -172l28 123h101q43 0 70.5 30.5t37.5 71.5l86 389q23 102 70 150.5t135 69.5v4q-80 20 -104.5 68t-1.5 151l86 389q8 41 -6.5 71.5t-57.5 30.5h-100l26 123h146q115 0 176 -58.5t33 -185.5l-88 -397q-14 -61 18.5 -97t93.5 -36l-26 -123q-61 0 -110.5 -36t-61.5 -97 l-88 -397q-29 -127 -116 -185.5t-202 -58.5h-145z" />
<glyph unicode="~" horiz-adv-x="1228" d="M262 532q23 33 52.5 65t65.5 56.5t80 40t95 15.5q55 0 111.5 -21.5t108.5 -48.5t99.5 -48.5t86.5 -21.5q61 0 112 47.5t101 100.5l30 -185q-31 -33 -62.5 -64.5t-68.5 -57t-80 -41t-96 -15.5q-70 0 -119 31t-102 61q-35 20 -76 35t-96 15q-74 0 -124 -47.5t-87 -100.5z " />
<glyph unicode="&#xa1;" horiz-adv-x="681" d="M109 -369l270 979h196l-163 -979h-303zM383 819l63 291h283l-63 -291h-283z" />
<glyph unicode="&#xa2;" d="M231 -256l172 297q-94 63 -124.5 190t8.5 301q27 127 81 229.5t129.5 174.5t171 110.5t201.5 38.5q70 0 134 -16l124 217h119l-151 -262q115 -72 133 -223l-230 -82q-10 47 -30 88l-355 -612q23 -10 66 -11q84 0 146.5 49.5t115.5 120.5l170 -108q-111 -143 -225.5 -206 t-259.5 -60q-66 0 -127 16l-150 -252h-119zM501.5 366.5q4.5 -67.5 28.5 -108.5l357 614q-23 8 -62 9q-106 0 -186 -84t-119 -265q-23 -98 -18.5 -165.5z" />
<glyph unicode="&#xa3;" d="M102 -20l56 253q59 4 102 34t74 72t50 91t30 94q6 31 11 60.5t7 58.5h-194l41 193h165q4 59 9.5 121.5t21.5 134.5q45 199 182.5 303t358.5 104q205 0 295 -116.5t45 -319.5h-246q10 96 -18.5 155.5t-139.5 59.5q-49 0 -86 -18.5t-62.5 -48t-42 -67.5t-26.5 -79 q-14 -66 -16 -118t0 -111h266l-41 -193h-237q-8 -33 -21.5 -79t-31 -94t-38 -92t-43.5 -75q51 -35 103.5 -60.5t120.5 -25.5q55 0 90 20.5t57.5 53.5t36.5 74t27 81h245q-20 -94 -60 -179t-96.5 -149.5t-129 -101t-160.5 -36.5q-74 0 -128 8t-98 23.5t-83 40t-80 54.5 q-61 -55 -143 -93t-173 -33z" />
<glyph unicode="&#xa4;" d="M166 336l131 106q-31 66 -39 140.5t10 156.5t59.5 157t100.5 140l-82 107l156 131l90 -105q70 41 149.5 66t161.5 25t151.5 -25t123.5 -66l135 105l98 -131l-131 -107q31 -66 39 -140.5t-10 -156.5t-59.5 -156.5t-100.5 -140.5l82 -106l-156 -131l-90 104 q-70 -41 -149.5 -65.5t-161.5 -24.5t-151.5 24.5t-123.5 65.5l-135 -104zM497 618q9 -55 37.5 -96t76.5 -63.5t110 -22.5q63 0 120.5 22.5t104.5 63.5t81 96.5t48 120.5q14 66 5 121t-37.5 96t-76.5 63.5t-110 22.5q-63 0 -120.5 -22.5t-104.5 -63.5t-81 -96t-48 -121 t-5 -121z" />
<glyph unicode="&#xa5;" d="M231 414l43 192h361l-39 139h-291l43 193h195l-158 541h254l172 -635l457 635h254l-396 -541h193l-43 -193h-289l-102 -139h360l-43 -192h-368l-93 -414h-233l92 414h-369z" />
<glyph unicode="&#xa6;" horiz-adv-x="454" d="M113 -20l127 577h221l-127 -577h-221zM322 922l127 577h221l-127 -577h-221z" />
<glyph unicode="&#xa7;" horiz-adv-x="1024" d="M182 2l164 109q18 -45 53 -80t93 -35q51 0 91 23.5t52 78.5q10 47 -16.5 99.5t-70.5 108.5t-97.5 115.5t-96.5 121t-66.5 125t-8.5 127.5q23 100 100.5 165.5t175.5 71.5q-35 55 -48 106.5t3 123.5q25 111 115 174t211 63q55 0 96 -8t73.5 -26.5t61.5 -50.5t59 -79 l-165 -112q-23 39 -56 73.5t-88 34.5q-41 0 -75.5 -24.5t-43.5 -61.5q-10 -41 16.5 -88t70.5 -100t96.5 -110.5t94.5 -120t63.5 -128t7.5 -135.5q-8 -33 -27 -69.5t-52.5 -69.5t-80.5 -58.5t-113 -35.5q35 -49 50.5 -109.5t0.5 -130.5q-14 -63 -49 -112.5t-83 -82 t-105.5 -50t-116.5 -17.5q-100 0 -171 50t-118 124zM475 815q-6 -27 16.5 -70t79.5 -120q115 -156 172 -156q39 0 70 22.5t39 59.5t-20.5 82t-81.5 119q-61 90 -98.5 117.5t-69.5 27.5q-33 0 -66 -23.5t-41 -58.5z" />
<glyph unicode="&#xa8;" horiz-adv-x="569" d="M238 1221l53 237h246l-54 -237h-245zM627 1221l53 237h246l-54 -237h-245z" />
<glyph unicode="&#xa9;" horiz-adv-x="1638" d="M194.5 420q-32.5 141 6.5 319t135 319.5t226 240t282.5 149.5t306.5 51t284 -51t217 -149.5t119.5 -239.5t-6.5 -320q-39 -178 -135 -319t-226 -239.5t-282.5 -149.5t-306.5 -51t-284 51t-217 149.5t-119.5 239.5zM391 491.5q21 -112.5 82.5 -193.5t156.5 -126t218 -45 q119 0 234.5 45t213 126t168 193.5t101.5 247.5t9 248t-83 194t-157.5 126t-215.5 45q-121 0 -236.5 -45t-213 -126t-167 -194t-100.5 -248t-10 -247.5zM579.5 570q-12.5 81 8.5 175q20 96 67 177.5t116 139.5t155 92t184 34q137 0 220 -79t73 -232h-176q2 72 -44 101.5 t-114 29.5q-100 0 -169 -70t-95 -188q-25 -115 16 -191t135 -76q76 0 133.5 34t81.5 108h185q-31 -78 -78 -138.5t-105.5 -101.5t-124 -61.5t-130.5 -20.5q-96 0 -168 34t-115 93t-55.5 140z" />
<glyph unicode="&#xaa;" horiz-adv-x="614" d="M236 1006q25 111 132 169t308 80l10 48q14 66 -76 65q-59 0 -96 -16.5t-70 -44.5l-88 75q20 25 54 47.5t72 38t79 23.5t78 8q139 -2 190.5 -57.5t18.5 -200.5l-66 -301q-6 -25 -8 -47.5t2 -44.5h-172l2 57q-51 -33 -103 -51t-120 -18q-94 0 -128 52t-19 118zM416 1024 q-12 -57 55 -57q39 0 84 14t68 35l30 137q-39 -6 -78.5 -15.5t-72.5 -22.5t-55.5 -34.5t-30.5 -56.5z" />
<glyph unicode="&#xab;" horiz-adv-x="1138" d="M240 526l319 334h229l-325 -334l180 -321h-229zM657 526l320 334h229l-325 -334l180 -321h-230z" />
<glyph unicode="&#xac;" horiz-adv-x="1228" d="M225 647l49 221h1065l-149 -671h-221l100 450h-844z" />
<glyph unicode="&#xad;" horiz-adv-x="681" d="M184 422l49 221h502l-49 -221h-502z" />
<glyph unicode="&#xae;" horiz-adv-x="1638" d="M194.5 420q-32.5 141 6.5 319t135 319.5t226 240t282.5 149.5t306.5 51t284 -51t217 -149.5t119.5 -239.5t-6.5 -320q-39 -178 -135 -319t-226 -239.5t-282.5 -149.5t-306.5 -51t-284 51t-217 149.5t-119.5 239.5zM391 491.5q21 -112.5 82.5 -193.5t156.5 -126t218 -45 q119 0 234.5 45t213 126t168 193.5t101.5 247.5t9 248t-83 194t-157.5 126t-215.5 45q-121 0 -236.5 -45t-213 -126t-167 -194t-100.5 -248t-10 -247.5zM582 324l184 833h313q164 0 240 -54t45 -198q-27 -117 -98.5 -166t-180.5 -55l138 -360h-183l-116 350h-84l-78 -350 h-180zM870 813h158q74 0 112 32t48 79q12 57 -23 75.5t-100 18.5h-150z" />
<glyph unicode="&#xaf;" horiz-adv-x="569" d="M211 1266l33 151h708l-32 -151h-709z" />
<glyph unicode="&#xb0;" horiz-adv-x="819" d="M382 1091.5q-11 53.5 3 114.5q12 61 47 114.5t83 93.5t106.5 62.5t119.5 22.5t110.5 -22.5t80.5 -62.5t41 -93t-2 -115q-14 -61 -49 -114.5t-83 -93.5t-107 -62.5t-120 -22.5t-109 22.5t-79 62.5t-42 93.5zM516 1206q-16 -68 19.5 -119t103.5 -51q35 0 66.5 14.5t59.5 37 t47 54.5t28 64q14 68 -22 119t-103 51q-35 0 -67 -14t-59.5 -36.5t-47 -53.5t-25.5 -66z" />
<glyph unicode="&#xb1;" horiz-adv-x="1228" d="M82 0l49 221h1065l-49 -221h-1065zM209 573l49 222h422l59 270h222l-60 -270h422l-49 -222h-422l-59 -272h-222l60 272h-422z" />
<glyph unicode="&#xb2;" horiz-adv-x="749" d="M174 598l33 147q14 35 60 74t107.5 81t129 85t127 85t100.5 83t49 78q27 121 -108 121q-72 0 -123 -39t-82 -99l-145 31q20 55 58 102.5t89 81t112.5 52t125.5 18.5q63 0 116.5 -16.5t89 -49t50 -80.5t2.5 -110q-18 -80 -69.5 -141.5t-125.5 -116.5t-166 -111.5 t-192 -128.5h442l-33 -147h-647z" />
<glyph unicode="&#xb3;" horiz-adv-x="749" d="M197 772l153 72q25 -53 67 -82t111 -29q63 0 118.5 34t70.5 99q10 49 -11.5 77t-60.5 41t-87 16.5t-89 3.5l29 135q104 0 180 21.5t90 90.5q10 43 -17.5 71t-88.5 30q-61 -2 -110.5 -28t-92.5 -60l-94 98q90 78 166.5 107.5t168.5 29.5q133 0 206 -57.5t48 -169.5 q-16 -68 -63 -116t-123 -75v-4q80 -23 111.5 -81t13.5 -142q-14 -70 -55 -120t-95.5 -83t-119 -49t-129.5 -16q-100 0 -184.5 46t-112.5 140z" />
<glyph unicode="&#xb4;" horiz-adv-x="569" d="M385 1200l258 299h315l-364 -299h-209z" />
<glyph unicode="&#xb5;" horiz-adv-x="1138" d="M45 -389l322 1454h254l-154 -692q-23 -109 1 -149t89 -40q84 0 152.5 38t109.5 75l170 768h254l-235 -1065h-234l25 115q-82 -49 -172 -92t-185 -43q-18 0 -32.5 1t-28.5 3l-82 -373h-254z" />
<glyph unicode="&#xb6;" horiz-adv-x="1269" d="M291 1110q25 109 77 180.5t122.5 113.5t151.5 58.5t161 16.5h725l-39 -172h-150l-319 -1446h-209l319 1446h-182l-319 -1446h-209l198 895q-182 0 -273 95t-54 259z" />
<glyph unicode="&#xb7;" horiz-adv-x="624" d="M274 532q12 63 67.5 109.5t117.5 46.5q66 0 103.5 -45t23.5 -111q-16 -66 -72.5 -110.5t-122.5 -44.5t-98.5 45t-18.5 110z" />
<glyph unicode="&#xb8;" horiz-adv-x="569" d="M-49 -416l55 86q25 -10 68 -21t86 -11q51 0 81.5 16t43.5 70q8 41 -15.5 52t-58.5 11q-23 0 -48.5 -4t-39.5 -8l-33 41l162 184h108l-116 -129q43 10 75 10q70 0 117 -37t29 -118q-10 -51 -43 -88t-76 -60.5t-91 -35t-93 -11.5q-57 0 -109.5 15.5t-101.5 37.5z" />
<glyph unicode="&#xb9;" horiz-adv-x="749" d="M287 598l28 135h138l131 590h-158l27 115q66 4 124 18t97 43h137l-170 -766h143l-28 -135h-469z" />
<glyph unicode="&#xba;" horiz-adv-x="614" d="M264 1167q35 154 134.5 243t240.5 89t200.5 -89t24.5 -243q-33 -154 -132 -242.5t-240 -88.5t-201 88.5t-27 242.5zM440 1167q-43 -201 82 -200q123 -1 166 200q45 201 -78 201q-125 0 -170 -201z" />
<glyph unicode="&#xbb;" horiz-adv-x="1138" d="M168 205l326 334l-181 321h230l174 -321l-320 -334h-229zM586 205l325 334l-180 321h230l174 -321l-320 -334h-229z" />
<glyph unicode="&#xbc;" horiz-adv-x="1875" d="M307 598l29 135h137l131 590h-158l27 115q66 4 124 18t97 43h137l-169 -766h143l-29 -135h-469zM428 -20l1182 1519h180l-1180 -1519h-182zM1130 205l39 172l506 512h211l-121 -549h129l-30 -135h-129l-45 -205h-189l45 205h-416zM1317 340h260l80 360h-4z" />
<glyph unicode="&#xbd;" horiz-adv-x="1875" d="M307 598l29 135h137l131 590h-158l27 115q66 4 124 18t97 43h137l-169 -766h143l-29 -135h-469zM395 -20l1182 1519h180l-1179 -1519h-183zM1090 0l32 147q14 35 60.5 74t108 81t129 85t127 85t100.5 83t51 78q27 121 -109 121q-74 0 -124 -39t-81 -99l-147 31 q20 55 59 102.5t90.5 81t112 52t125.5 18.5q63 0 116.5 -16.5t88.5 -49t50 -80.5t1 -110q-18 -80 -69.5 -141.5t-125 -116.5t-166 -111.5t-192.5 -128.5h442l-32 -147h-647z" />
<glyph unicode="&#xbe;" horiz-adv-x="1875" d="M229 772l154 72q25 -53 67 -82t111 -29q63 0 118.5 34t70.5 99q10 49 -11.5 77t-60.5 41t-87 16.5t-89 3.5l28 135q104 0 180 21.5t91 90.5q10 43 -17.5 71t-89.5 30q-61 -2 -110 -28t-92 -60l-95 98q90 78 167 107.5t169 29.5q133 0 206 -57.5t48 -169.5 q-16 -68 -63 -116t-123 -75v-4q80 -23 111.5 -81t13.5 -142q-14 -70 -55.5 -120t-95.5 -83t-118.5 -49t-130.5 -16q-100 0 -184 46t-113 140zM457 -20l1181 1519h181l-1180 -1519h-182zM1130 205l39 172l506 512h211l-121 -549h129l-30 -135h-129l-45 -205h-189l45 205h-416 zM1317 340h260l80 360h-4z" />
<glyph unicode="&#xbf;" horiz-adv-x="909" d="M81 -202.5q-15 61.5 1 141.5q23 102 85 174.5t132 138.5q72 66 132.5 132.5t78.5 152.5l16 75h226l-25 -112q-18 -88 -76.5 -164t-122.5 -146q-66 -70 -121 -134t-69 -130q-10 -47 21.5 -78.5t82.5 -31.5q37 0 70 16t60.5 42t48 57.5t32.5 64.5l219 -66 q-72 -154 -198.5 -236.5t-292.5 -82.5q-76 0 -138.5 21.5t-104.5 62.5t-57 102.5zM541 819l63 291h283l-64 -291h-282z" />
<glyph unicode="&#xc0;" d="M27 0l1081 1481h353l-236 -1481h-281l61 319h-467l-231 -319h-280zM703 553h344l117 643h-4zM1028 1868h316l61 -299h-209z" />
<glyph unicode="&#xc1;" d="M27 0l1081 1481h353l-236 -1481h-281l61 319h-467l-231 -319h-280zM703 553h344l117 643h-4zM1073 1569l324 299h315l-430 -299h-209z" />
<glyph unicode="&#xc2;" d="M27 0l1081 1481h353l-236 -1481h-281l61 319h-467l-231 -319h-280zM703 553h344l117 643h-4zM878 1569l363 299h254l104 -299h-231l-55 168l-205 -168h-230z" />
<glyph unicode="&#xc3;" d="M27 0l1081 1481h353l-236 -1481h-281l61 319h-467l-231 -319h-280zM703 553h344l117 643h-4zM872 1586q26 47 64 92t82.5 79.5t94.5 56t103 21.5q41 0 76.5 -12t67 -25.5t58.5 -25.5t51 -12q37 0 74 26.5t61 61.5h133q-31 -47 -68 -92.5t-78 -80t-89 -56t-103 -21.5 q-39 0 -74.5 11t-68.5 24.5t-64 24.5t-62 11q-43 0 -73 -24.5t-58 -58.5h-127z" />
<glyph unicode="&#xc4;" d="M27 0l1081 1481h353l-236 -1481h-281l61 319h-467l-231 -319h-280zM703 553h344l117 643h-4zM931 1590l105 237h246l-106 -237h-245zM1320 1590l105 237h246l-106 -237h-245z" />
<glyph unicode="&#xc5;" d="M27 0l1081 1481h353l-236 -1481h-281l61 319h-467l-231 -319h-280zM703 553h344l117 643h-4zM1110 1631.5q-35 64.5 6 156.5q20 47 54.5 87t78 70t91.5 47t95 17q92 0 128 -64.5t-5 -156.5q-20 -45 -56 -86t-79.5 -70.5t-91 -47t-92.5 -17.5q-94 0 -129 64.5z M1222.5 1709.5q17.5 -31.5 64.5 -31.5q45 0 92 31.5t69 78.5q20 47 1.5 79t-63.5 32q-47 0 -93.5 -32t-66.5 -79q-21 -47 -3.5 -78.5z" />
<glyph unicode="&#xc6;" horiz-adv-x="1933" d="M14 0l1071 1479h1076l-54 -238h-620l-78 -352h430l-53 -238h-430l-90 -413h643l-54 -238h-925l76 346h-451l-240 -346h-301zM725 584h334l153 690h-4z" />
<glyph unicode="&#xc7;" d="M219 -416l74 86q23 -10 63.5 -21t83.5 -11q51 0 85 16t59 70q17 41 -4 52t-56 11q-23 0 -49.5 -4t-41.5 -8l-24 41l203 184h108l-145 -129q46 10 78 10q70 0 108.5 -37t2.5 -118q-21 -51 -62 -88t-89.5 -60.5t-99 -35t-95.5 -11.5q-57 0 -106 15.5t-93 37.5zM295 177.5 q-67 197.5 94 561.5q81 182 183.5 323.5t221 238t251.5 147.5t274 51q213 0 296.5 -95t47.5 -294l-281 -61q10 94 -30 153.5t-144 59.5q-143 0 -282 -130.5t-254 -392.5q-239 -522 78 -522q49 0 93 10.5t89 35t95 66.5t110 107l232 -69q-153 -193 -336 -290t-386 -97 q-285 0 -352 197.5z" />
<glyph unicode="&#xc8;" d="M172 0l656 1479h979l-107 -238h-696l-156 -352h506l-106 -238h-506l-181 -413h719l-106 -238h-1002zM1067 1868h316l61 -299h-209z" />
<glyph unicode="&#xc9;" d="M172 0l656 1479h979l-107 -238h-696l-156 -352h506l-106 -238h-506l-181 -413h719l-106 -238h-1002zM1112 1569l324 299h315l-430 -299h-209z" />
<glyph unicode="&#xca;" d="M172 0l656 1479h979l-107 -238h-696l-156 -352h506l-106 -238h-506l-181 -413h719l-106 -238h-1002zM917 1569l363 299h254l104 -299h-231l-55 168l-205 -168h-230z" />
<glyph unicode="&#xcb;" d="M172 0l656 1479h979l-107 -238h-696l-156 -352h506l-106 -238h-506l-181 -413h719l-106 -238h-1002zM970 1590l105 237h246l-106 -237h-245zM1359 1590l105 237h246l-106 -237h-245z" />
<glyph unicode="&#xcc;" horiz-adv-x="681" d="M199 0l655 1479h283l-656 -1479h-282zM737 1868h316l61 -299h-209z" />
<glyph unicode="&#xcd;" horiz-adv-x="681" d="M199 0l655 1479h283l-656 -1479h-282zM782 1569l324 299h315l-430 -299h-209z" />
<glyph unicode="&#xce;" horiz-adv-x="681" d="M199 0l655 1479h283l-656 -1479h-282zM587 1569l363 299h254l104 -299h-231l-55 168l-205 -168h-230z" />
<glyph unicode="&#xcf;" horiz-adv-x="681" d="M199 0l655 1479h283l-656 -1479h-282zM640 1590l105 237h246l-106 -237h-245zM1029 1590l105 237h246l-106 -237h-245z" />
<glyph unicode="&#xd0;" horiz-adv-x="1366" d="M160 0l141 635h-137l55 254h137l131 590h490q147 0 259 -42t180.5 -132.5t86 -229.5t-25.5 -336q-45 -197 -124 -336t-186.5 -229t-238.5 -132t-279 -42h-489zM496 238h188q121 0 208 40.5t146.5 110.5t96 161t59.5 189t26 189.5t-27 161t-97.5 110.5t-190.5 41h-188 l-78 -352h305l-55 -254h-305z" />
<glyph unicode="&#xd1;" horiz-adv-x="1478" d="M166 0l656 1479h294l135 -1008h4l447 1008h266l-655 -1479h-273l-137 1053h-4l-467 -1053h-266zM985 1586q26 47 64 92t82.5 79.5t94.5 56t103 21.5q41 0 76.5 -12t67 -25.5t58.5 -25.5t51 -12q37 0 74 26.5t61 61.5h133q-31 -47 -68 -92.5t-78 -80t-89 -56t-103 -21.5 q-39 0 -74.5 11t-68.5 24.5t-64 24.5t-62 11q-43 0 -73 -24.5t-58 -58.5h-127z" />
<glyph unicode="&#xd2;" horiz-adv-x="1366" d="M300 178.5q-71 198.5 89 560.5q163 365 408.5 562.5t548.5 197.5t373.5 -199t-89.5 -561q-161 -365 -407 -562t-549 -197t-374 198.5zM577 347q24 -130 200 -130t316 130t255 392t92 392.5t-197 130.5q-176 0 -316 -130.5t-255 -392.5q-119 -262 -95 -392zM1085 1868h316 l61 -299h-209z" />
<glyph unicode="&#xd3;" horiz-adv-x="1366" d="M300 178.5q-71 198.5 89 560.5q163 365 408.5 562.5t548.5 197.5t373.5 -199t-89.5 -561q-161 -365 -407 -562t-549 -197t-374 198.5zM577 347q24 -130 200 -130t316 130t255 392t92 392.5t-197 130.5q-176 0 -316 -130.5t-255 -392.5q-119 -262 -95 -392zM1130 1569 l324 299h315l-430 -299h-209z" />
<glyph unicode="&#xd4;" horiz-adv-x="1366" d="M300 178.5q-71 198.5 89 560.5q163 365 408.5 562.5t548.5 197.5t373.5 -199t-89.5 -561q-161 -365 -407 -562t-549 -197t-374 198.5zM577 347q24 -130 200 -130t316 130t255 392t92 392.5t-197 130.5q-176 0 -316 -130.5t-255 -392.5q-119 -262 -95 -392zM935 1569 l363 299h254l104 -299h-231l-55 168l-205 -168h-230z" />
<glyph unicode="&#xd5;" horiz-adv-x="1366" d="M300 178.5q-71 198.5 89 560.5q163 365 408.5 562.5t548.5 197.5t373.5 -199t-89.5 -561q-161 -365 -407 -562t-549 -197t-374 198.5zM577 347q24 -130 200 -130t316 130t255 392t92 392.5t-197 130.5q-176 0 -316 -130.5t-255 -392.5q-119 -262 -95 -392zM929 1586 q26 47 64 92t82.5 79.5t94.5 56t103 21.5q41 0 76.5 -12t67 -25.5t58.5 -25.5t51 -12q37 0 74 26.5t61 61.5h133q-31 -47 -68 -92.5t-78 -80t-89 -56t-103 -21.5q-39 0 -74.5 11t-68.5 24.5t-64 24.5t-62 11q-43 0 -73 -24.5t-58 -58.5h-127z" />
<glyph unicode="&#xd6;" horiz-adv-x="1366" d="M300 178.5q-71 198.5 89 560.5q163 365 408.5 562.5t548.5 197.5t373.5 -199t-89.5 -561q-161 -365 -407 -562t-549 -197t-374 198.5zM577 347q24 -130 200 -130t316 130t255 392t92 392.5t-197 130.5q-176 0 -316 -130.5t-255 -392.5q-119 -262 -95 -392zM988 1590 l105 237h246l-106 -237h-245zM1377 1590l105 237h246l-106 -237h-245z" />
<glyph unicode="&#xd7;" horiz-adv-x="1228" d="M117 160l458 375l-292 374l192 156l293 -373l457 373l123 -156l-457 -374l291 -375l-193 -160l-291 377l-458 -377z" />
<glyph unicode="&#xd8;" horiz-adv-x="1366" d="M-53 -135l301 338q-98 195 -23 536q82 365 284 562.5t505 197.5q195 0 311 -86l129 148h236l-248 -279q102 -195 24 -543q-80 -365 -282.5 -562t-505.5 -197q-203 0 -318 88l-180 -203h-233zM477 463l660 741q-61 57 -174 58q-176 0 -287 -130.5t-168 -392.5 q-18 -84 -26.5 -153.5t-4.5 -122.5zM549 279q63 -61 180 -62q176 0 286.5 130t168.5 392q39 172 26 283z" />
<glyph unicode="&#xd9;" horiz-adv-x="1478" d="M343 281.5q2 109.5 75 271.5l410 926h282l-415 -938q-81 -180 -41.5 -252t180.5 -72q143 0 246.5 71.5t184.5 252.5l415 938h282l-409 -926q-73 -162 -168.5 -271.5t-203.5 -177t-222.5 -96t-227.5 -28.5t-203 28.5t-138.5 96t-46.5 177zM1134 1868h316l61 -299h-209z " />
<glyph unicode="&#xda;" horiz-adv-x="1478" d="M343 281.5q2 109.5 75 271.5l410 926h282l-415 -938q-81 -180 -41.5 -252t180.5 -72q143 0 246.5 71.5t184.5 252.5l415 938h282l-409 -926q-73 -162 -168.5 -271.5t-203.5 -177t-222.5 -96t-227.5 -28.5t-203 28.5t-138.5 96t-46.5 177zM1179 1569l324 299h315 l-430 -299h-209z" />
<glyph unicode="&#xdb;" horiz-adv-x="1478" d="M343 281.5q2 109.5 75 271.5l410 926h282l-415 -938q-81 -180 -41.5 -252t180.5 -72q143 0 246.5 71.5t184.5 252.5l415 938h282l-409 -926q-73 -162 -168.5 -271.5t-203.5 -177t-222.5 -96t-227.5 -28.5t-203 28.5t-138.5 96t-46.5 177zM984 1569l363 299h254l104 -299 h-231l-55 168l-205 -168h-230z" />
<glyph unicode="&#xdc;" horiz-adv-x="1478" d="M343 281.5q2 109.5 75 271.5l410 926h282l-415 -938q-81 -180 -41.5 -252t180.5 -72q143 0 246.5 71.5t184.5 252.5l415 938h282l-409 -926q-73 -162 -168.5 -271.5t-203.5 -177t-222.5 -96t-227.5 -28.5t-203 28.5t-138.5 96t-46.5 177zM1037 1590l105 237h246 l-106 -237h-245zM1426 1590l105 237h246l-106 -237h-245z" />
<glyph unicode="&#xdd;" horiz-adv-x="1138" d="M428 0l262 590l-14 889h295l-5 -586l513 586h295l-801 -889l-262 -590h-283zM1016 1569l324 299h315l-430 -299h-209z" />
<glyph unicode="&#xde;" d="M139 0l328 1479h283l-60 -273h258q119 0 210 -25.5t147.5 -78.5t74 -137t-7.5 -199q-51 -229 -216 -334.5t-404 -105.5h-258l-72 -326h-283zM545 555h225q160 0 228.5 56.5t91.5 154.5q10 49 6 88t-29 66.5t-74 42t-129 14.5h-225z" />
<glyph unicode="&#xdf;" horiz-adv-x="1024" d="M109 0l249 1126q16 76 54.5 140.5t96.5 111.5t136 74t174 27q205 0 282 -97.5t40 -263.5q-25 -109 -72 -182.5t-151 -120.5v-4q100 -31 147 -128t8 -277q-27 -121 -72 -203t-104 -131t-131 -70.5t-154 -21.5q-33 0 -83 13t-72 36l102 180q16 -10 40 -17.5t46 -7.5 q125 0 176 234q12 57 15.5 106t-9 86t-44 57.5t-87.5 20.5h-53l47 205h33q55 0 98 44t64 138q45 199 -107 199q-133 0 -168 -156l-248 -1118h-253z" />
<glyph unicode="&#xe0;" horiz-adv-x="1024" d="M123.5 156.5q4.5 50.5 28.5 105.5q81 182 274.5 281.5t523.5 136.5l38 90q27 61 -2 94t-97 33q-90 0 -160.5 -40t-130.5 -91l-109 125q44 43 103 79t124.5 62.5t132 40.5t123.5 12q108 -2 174.5 -24.5t94.5 -72.5t16 -131t-65 -202l-222 -501q-19 -41 -31.5 -80 t-16.5 -74h-248l24 92q-99 -53 -189.5 -82.5t-190.5 -29.5q-72 0 -116 23.5t-63.5 63t-15 90zM414 201q20 -33 74 -33q31 0 68 11t76 28.5t76 37t63 36.5l102 229q-69 -12 -139.5 -26.5t-130.5 -38t-108.5 -60.5t-73.5 -92q-27 -59 -7 -92zM833 1499h316l61 -299h-209z" />
<glyph unicode="&#xe1;" horiz-adv-x="1024" d="M123.5 156.5q4.5 50.5 28.5 105.5q81 182 274.5 281.5t523.5 136.5l38 90q27 61 -2 94t-97 33q-90 0 -160.5 -40t-130.5 -91l-109 125q44 43 103 79t124.5 62.5t132 40.5t123.5 12q108 -2 174.5 -24.5t94.5 -72.5t16 -131t-65 -202l-222 -501q-19 -41 -31.5 -80 t-16.5 -74h-248l24 92q-99 -53 -189.5 -82.5t-190.5 -29.5q-72 0 -116 23.5t-63.5 63t-15 90zM414 201q20 -33 74 -33q31 0 68 11t76 28.5t76 37t63 36.5l102 229q-69 -12 -139.5 -26.5t-130.5 -38t-108.5 -60.5t-73.5 -92q-27 -59 -7 -92zM878 1200l324 299h315l-430 -299 h-209z" />
<glyph unicode="&#xe2;" horiz-adv-x="1024" d="M123.5 156.5q4.5 50.5 28.5 105.5q81 182 274.5 281.5t523.5 136.5l38 90q27 61 -2 94t-97 33q-90 0 -160.5 -40t-130.5 -91l-109 125q44 43 103 79t124.5 62.5t132 40.5t123.5 12q108 -2 174.5 -24.5t94.5 -72.5t16 -131t-65 -202l-222 -501q-19 -41 -31.5 -80 t-16.5 -74h-248l24 92q-99 -53 -189.5 -82.5t-190.5 -29.5q-72 0 -116 23.5t-63.5 63t-15 90zM414 201q20 -33 74 -33q31 0 68 11t76 28.5t76 37t63 36.5l102 229q-69 -12 -139.5 -26.5t-130.5 -38t-108.5 -60.5t-73.5 -92q-27 -59 -7 -92zM683 1200l363 299h254l104 -299 h-231l-55 168l-205 -168h-230z" />
<glyph unicode="&#xe3;" horiz-adv-x="1024" d="M123.5 156.5q4.5 50.5 28.5 105.5q81 182 274.5 281.5t523.5 136.5l38 90q27 61 -2 94t-97 33q-90 0 -160.5 -40t-130.5 -91l-109 125q44 43 103 79t124.5 62.5t132 40.5t123.5 12q108 -2 174.5 -24.5t94.5 -72.5t16 -131t-65 -202l-222 -501q-19 -41 -31.5 -80 t-16.5 -74h-248l24 92q-99 -53 -189.5 -82.5t-190.5 -29.5q-72 0 -116 23.5t-63.5 63t-15 90zM414 201q20 -33 74 -33q31 0 68 11t76 28.5t76 37t63 36.5l102 229q-69 -12 -139.5 -26.5t-130.5 -38t-108.5 -60.5t-73.5 -92q-27 -59 -7 -92zM677 1217q26 47 64 92t82.5 79.5 t94.5 56t103 21.5q41 0 76.5 -12t67 -25.5t58.5 -25.5t51 -12q37 0 74 26.5t61 61.5h133q-31 -47 -68 -92.5t-78 -80t-89 -56t-103 -21.5q-39 0 -74.5 11t-68.5 24.5t-64 24.5t-62 11q-43 0 -73 -24.5t-58 -58.5h-127z" />
<glyph unicode="&#xe4;" horiz-adv-x="1024" d="M123.5 156.5q4.5 50.5 28.5 105.5q81 182 274.5 281.5t523.5 136.5l38 90q27 61 -2 94t-97 33q-90 0 -160.5 -40t-130.5 -91l-109 125q44 43 103 79t124.5 62.5t132 40.5t123.5 12q108 -2 174.5 -24.5t94.5 -72.5t16 -131t-65 -202l-222 -501q-19 -41 -31.5 -80 t-16.5 -74h-248l24 92q-99 -53 -189.5 -82.5t-190.5 -29.5q-72 0 -116 23.5t-63.5 63t-15 90zM414 201q20 -33 74 -33q31 0 68 11t76 28.5t76 37t63 36.5l102 229q-69 -12 -139.5 -26.5t-130.5 -38t-108.5 -60.5t-73.5 -92q-27 -59 -7 -92zM736 1221l105 237h246l-106 -237 h-245zM1125 1221l105 237h246l-106 -237h-245z" />
<glyph unicode="&#xe5;" horiz-adv-x="1024" d="M123.5 156.5q4.5 50.5 28.5 105.5q81 182 274.5 281.5t523.5 136.5l38 90q27 61 -2 94t-97 33q-90 0 -160.5 -40t-130.5 -91l-109 125q44 43 103 79t124.5 62.5t132 40.5t123.5 12q108 -2 174.5 -24.5t94.5 -72.5t16 -131t-65 -202l-222 -501q-19 -41 -31.5 -80 t-16.5 -74h-248l24 92q-99 -53 -189.5 -82.5t-190.5 -29.5q-72 0 -116 23.5t-63.5 63t-15 90zM414 201q20 -33 74 -33q31 0 68 11t76 28.5t76 37t63 36.5l102 229q-69 -12 -139.5 -26.5t-130.5 -38t-108.5 -60.5t-73.5 -92q-27 -59 -7 -92zM915 1262.5q-35 64.5 6 156.5 q20 47 54.5 87t78 70t91.5 47t95 17q92 0 128 -64.5t-5 -156.5q-20 -45 -56 -86t-79.5 -70.5t-91 -47t-92.5 -17.5q-94 0 -129 64.5zM1027.5 1340.5q17.5 -31.5 64.5 -31.5q45 0 92 31.5t69 78.5q20 47 1.5 79t-63.5 32q-47 0 -93.5 -32t-66.5 -79q-21 -47 -3.5 -78.5z" />
<glyph unicode="&#xe6;" horiz-adv-x="1593" d="M89 156.5q-7 50.5 5 105.5q41 182 213 281.5t500 136.5l18 90q14 61 -26.5 94t-108.5 33q-90 0 -151.5 -40t-110.5 -91l-137 125q35 43 86 79t110.5 62.5t123 40.5t120.5 12q119 -4 186.5 -32.5t98.5 -81.5q66 55 144.5 84.5t168.5 29.5q111 0 185.5 -39.5t115.5 -107.5 t50.5 -157t-11.5 -185l-24 -104h-648l-22 -107q-20 -90 29 -145.5t147 -55.5q92 0 150.5 36t119.5 91l158 -114q-98 -115 -219 -166t-275 -51q-43 0 -87 7t-84 26.5t-72.5 51t-53.5 80.5q-88 -55 -156.5 -87.5t-122.5 -50t-100.5 -22.5t-86.5 -5q-72 0 -121 23.5t-77 63 t-35 90zM356 293q-14 -59 13.5 -92t81.5 -33q31 0 65.5 11t70.5 28.5t69.5 37t60.5 36.5l51 229q-70 -12 -138.5 -26.5t-124.5 -38t-96 -60.5t-53 -92zM1036 664h414q20 111 -20.5 172t-133.5 61q-96 0 -164.5 -61.5t-95.5 -171.5z" />
<glyph unicode="&#xe7;" horiz-adv-x="1024" d="M86 -416l74 86q23 -10 63.5 -21t83.5 -11q51 0 85 16t59 70q17 41 -4 52t-56 11q-23 0 -49.5 -4t-41.5 -8l-24 41l203 184h108l-145 -129q46 10 78 10q70 0 108.5 -37t2.5 -118q-21 -51 -62 -88t-89.5 -60.5t-99 -35t-95.5 -11.5q-57 0 -106 15.5t-93 37.5zM216 303.5 q13 102.5 70 228.5q55 127 132 229.5t168.5 174.5t195.5 110.5t211 38.5q152 0 230 -74.5t65 -209.5l-248 -82q0 35 -5 63.5t-18.5 51t-40.5 35t-74 12.5q-106 0 -194.5 -84t-167.5 -265q-81 -180 -65.5 -264t127.5 -84q84 0 157.5 49.5t141.5 120.5l147 -108 q-143 -143 -271.5 -206t-272.5 -60q-109 0 -178 38.5t-96 110.5t-14 174.5z" />
<glyph unicode="&#xe8;" horiz-adv-x="1024" d="M216 303.5q13 102.5 70 228.5q55 127 132 229.5t168.5 174.5t195.5 110.5t211 38.5q106 0 168.5 -39.5t87.5 -107.5t14.5 -157t-52.5 -185l-47 -104h-643q-34 -82 -42 -140.5t5.5 -95.5t45 -54.5t76.5 -17.5q90 0 155.5 36t138.5 91l133 -114q-124 -115 -256 -166 t-285 -51q-104 0 -170.5 38.5t-92.5 110.5t-13 174.5zM598 664h409q45 111 18 172t-119 61t-174.5 -61.5t-133.5 -171.5zM833 1499h316l61 -299h-209z" />
<glyph unicode="&#xe9;" horiz-adv-x="1024" d="M216 303.5q13 102.5 70 228.5q55 127 132 229.5t168.5 174.5t195.5 110.5t211 38.5q106 0 168.5 -39.5t87.5 -107.5t14.5 -157t-52.5 -185l-47 -104h-643q-34 -82 -42 -140.5t5.5 -95.5t45 -54.5t76.5 -17.5q90 0 155.5 36t138.5 91l133 -114q-124 -115 -256 -166 t-285 -51q-104 0 -170.5 38.5t-92.5 110.5t-13 174.5zM598 664h409q45 111 18 172t-119 61t-174.5 -61.5t-133.5 -171.5zM878 1200l324 299h315l-430 -299h-209z" />
<glyph unicode="&#xea;" horiz-adv-x="1024" d="M216 303.5q13 102.5 70 228.5q55 127 132 229.5t168.5 174.5t195.5 110.5t211 38.5q106 0 168.5 -39.5t87.5 -107.5t14.5 -157t-52.5 -185l-47 -104h-643q-34 -82 -42 -140.5t5.5 -95.5t45 -54.5t76.5 -17.5q90 0 155.5 36t138.5 91l133 -114q-124 -115 -256 -166 t-285 -51q-104 0 -170.5 38.5t-92.5 110.5t-13 174.5zM598 664h409q45 111 18 172t-119 61t-174.5 -61.5t-133.5 -171.5zM683 1200l363 299h254l104 -299h-231l-55 168l-205 -168h-230z" />
<glyph unicode="&#xeb;" horiz-adv-x="1024" d="M216 303.5q13 102.5 70 228.5q55 127 132 229.5t168.5 174.5t195.5 110.5t211 38.5q106 0 168.5 -39.5t87.5 -107.5t14.5 -157t-52.5 -185l-47 -104h-643q-34 -82 -42 -140.5t5.5 -95.5t45 -54.5t76.5 -17.5q90 0 155.5 36t138.5 91l133 -114q-124 -115 -256 -166 t-285 -51q-104 0 -170.5 38.5t-92.5 110.5t-13 174.5zM598 664h409q45 111 18 172t-119 61t-174.5 -61.5t-133.5 -171.5zM736 1221l105 237h246l-106 -237h-245zM1125 1221l105 237h246l-106 -237h-245z" />
<glyph unicode="&#xec;" horiz-adv-x="569" d="M158 0l471 1065h254l-471 -1065h-254zM610 1499h316l61 -299h-209z" />
<glyph unicode="&#xed;" horiz-adv-x="569" d="M158 0l471 1065h254l-471 -1065h-254zM655 1200l324 299h315l-430 -299h-209z" />
<glyph unicode="&#xee;" horiz-adv-x="569" d="M158 0l471 1065h254l-471 -1065h-254zM460 1200l363 299h254l104 -299h-231l-55 168l-205 -168h-230z" />
<glyph unicode="&#xef;" horiz-adv-x="569" d="M158 0l471 1065h254l-471 -1065h-254zM513 1221l105 237h246l-106 -237h-245zM902 1221l105 237h246l-106 -237h-245z" />
<glyph unicode="&#xf0;" horiz-adv-x="1024" d="M145.5 290q-10.5 95 14.5 210t78 210t127.5 164.5t170 107.5t201.5 38q20 0 40 -2t44 -8q-6 41 -20.5 78.5t-30.5 72.5l-231 -100l-45 131l206 90q-23 35 -49 66.5t-55 60.5l235 70q27 -23 49.5 -46.5t43.5 -52.5l227 99l45 -131l-201 -88q86 -162 109.5 -365t-19.5 -395 q-25 -115 -78 -210t-127.5 -165t-169 -107.5t-202.5 -37.5q-109 0 -186.5 37.5t-121.5 107.5t-54.5 165zM413 265q34 -81 140 -81t175 81t103 235q35 154 1.5 234.5t-140.5 80.5q-106 0 -174.5 -81t-103.5 -234q-35 -154 -1 -235z" />
<glyph unicode="&#xf1;" horiz-adv-x="1138" d="M131 0l472 1065h233l-50 -115q92 49 192.5 92t194.5 43q162 0 196.5 -96t-38.5 -260l-323 -729h-254l306 692q50 109 34 149t-82 40q-82 0 -160 -38t-127 -75l-340 -768h-254zM724 1217q26 47 64 92t82.5 79.5t94.5 56t103 21.5q41 0 76.5 -12t67 -25.5t58.5 -25.5 t51 -12q37 0 74 26.5t61 61.5h133q-31 -47 -68 -92.5t-78 -80t-89 -56t-103 -21.5q-39 0 -74.5 11t-68.5 24.5t-64 24.5t-62 11q-43 0 -73 -24.5t-58 -58.5h-127z" />
<glyph unicode="&#xf2;" horiz-adv-x="1024" d="M216 303q13 102 70 229q55 127 132 229.5t168.5 174.5t195.5 110.5t211 38.5q109 0 177.5 -38.5t97 -110.5t13.5 -174.5t-69 -229.5q-57 -127 -134 -229t-168.5 -174t-194.5 -110.5t-211 -38.5q-109 0 -178 38.5t-96 110.5t-14 174zM473 268q14 -84 121 -84 q106 0 194.5 84t169.5 264q79 180 64.5 264.5t-120.5 84.5t-194.5 -84t-167.5 -265q-81 -180 -67 -264zM827 1499h316l61 -299h-209z" />
<glyph unicode="&#xf3;" horiz-adv-x="1024" d="M216 303q13 102 70 229q55 127 132 229.5t168.5 174.5t195.5 110.5t211 38.5q109 0 177.5 -38.5t97 -110.5t13.5 -174.5t-69 -229.5q-57 -127 -134 -229t-168.5 -174t-194.5 -110.5t-211 -38.5q-109 0 -178 38.5t-96 110.5t-14 174zM473 268q14 -84 121 -84 q106 0 194.5 84t169.5 264q79 180 64.5 264.5t-120.5 84.5t-194.5 -84t-167.5 -265q-81 -180 -67 -264zM872 1200l324 299h315l-430 -299h-209z" />
<glyph unicode="&#xf4;" horiz-adv-x="1024" d="M216 303q13 102 70 229q55 127 132 229.5t168.5 174.5t195.5 110.5t211 38.5q109 0 177.5 -38.5t97 -110.5t13.5 -174.5t-69 -229.5q-57 -127 -134 -229t-168.5 -174t-194.5 -110.5t-211 -38.5q-109 0 -178 38.5t-96 110.5t-14 174zM473 268q14 -84 121 -84 q106 0 194.5 84t169.5 264q79 180 64.5 264.5t-120.5 84.5t-194.5 -84t-167.5 -265q-81 -180 -67 -264zM677 1200l363 299h254l104 -299h-231l-55 168l-205 -168h-230z" />
<glyph unicode="&#xf5;" horiz-adv-x="1024" d="M216 303q13 102 70 229q55 127 132 229.5t168.5 174.5t195.5 110.5t211 38.5q109 0 177.5 -38.5t97 -110.5t13.5 -174.5t-69 -229.5q-57 -127 -134 -229t-168.5 -174t-194.5 -110.5t-211 -38.5q-109 0 -178 38.5t-96 110.5t-14 174zM473 268q14 -84 121 -84 q106 0 194.5 84t169.5 264q79 180 64.5 264.5t-120.5 84.5t-194.5 -84t-167.5 -265q-81 -180 -67 -264zM671 1217q26 47 64 92t82.5 79.5t94.5 56t103 21.5q41 0 76.5 -12t67 -25.5t58.5 -25.5t51 -12q37 0 74 26.5t61 61.5h133q-31 -47 -68 -92.5t-78 -80t-89 -56 t-103 -21.5q-39 0 -74.5 11t-68.5 24.5t-64 24.5t-62 11q-43 0 -73 -24.5t-58 -58.5h-127z" />
<glyph unicode="&#xf6;" horiz-adv-x="1024" d="M216 303q13 102 70 229q55 127 132 229.5t168.5 174.5t195.5 110.5t211 38.5q109 0 177.5 -38.5t97 -110.5t13.5 -174.5t-69 -229.5q-57 -127 -134 -229t-168.5 -174t-194.5 -110.5t-211 -38.5q-109 0 -178 38.5t-96 110.5t-14 174zM473 268q14 -84 121 -84 q106 0 194.5 84t169.5 264q79 180 64.5 264.5t-120.5 84.5t-194.5 -84t-167.5 -265q-81 -180 -67 -264zM730 1221l105 237h246l-106 -237h-245zM1119 1221l105 237h246l-106 -237h-245z" />
<glyph unicode="&#xf7;" horiz-adv-x="1228" d="M176 422l49 221h1065l-49 -221h-1065zM466 78q-7 33 1 65q6 35 28.5 67t52.5 58.5t65.5 42t70.5 15.5q39 0 68.5 -15.5t49 -42t26.5 -58.5t1 -67q-8 -33 -29.5 -65.5t-53 -58t-68.5 -41t-74 -15.5q-35 0 -63.5 15.5t-48 41t-26.5 58.5zM638 854q-7 33 1 66 q6 35 28.5 66.5t52.5 58t65.5 42t70.5 15.5q39 0 68.5 -15.5t49 -42t26.5 -58t1 -66.5q-8 -33 -29.5 -66t-53 -58.5t-68.5 -41t-74 -15.5q-35 0 -63.5 15.5t-48 41t-26.5 58.5z" />
<glyph unicode="&#xf8;" horiz-adv-x="1024" d="M-25 -205l242 314q-111 150 -49 423q27 127 81 229.5t130 174.5t171 110.5t202 38.5q113 0 188 -41l162 209h186l-235 -305q100 -150 41 -416q-29 -127 -83.5 -229t-130 -174t-170 -110.5t-202.5 -38.5q-98 0 -176 34l-170 -219h-187zM399 346l398 512q-37 23 -90 23 q-106 0 -176 -84t-109 -265q-27 -113 -23 -186zM475 201q33 -16 78 -17q106 0 176 84t111 264q10 49 15 91.5t5 76.5z" />
<glyph unicode="&#xf9;" horiz-adv-x="1138" d="M242 76q-34 96 37 260l324 729h254l-307 -692q-47 -109 -32 -149t80 -40q84 0 161 38t126 75l340 768h254l-471 -1065h-234l50 115q-92 -49 -191.5 -92t-194.5 -43q-162 0 -196 96zM891 1499h316l61 -299h-209z" />
<glyph unicode="&#xfa;" horiz-adv-x="1138" d="M242 76q-34 96 37 260l324 729h254l-307 -692q-47 -109 -32 -149t80 -40q84 0 161 38t126 75l340 768h254l-471 -1065h-234l50 115q-92 -49 -191.5 -92t-194.5 -43q-162 0 -196 96zM936 1200l324 299h315l-430 -299h-209z" />
<glyph unicode="&#xfb;" horiz-adv-x="1138" d="M242 76q-34 96 37 260l324 729h254l-307 -692q-47 -109 -32 -149t80 -40q84 0 161 38t126 75l340 768h254l-471 -1065h-234l50 115q-92 -49 -191.5 -92t-194.5 -43q-162 0 -196 96zM741 1200l363 299h254l104 -299h-231l-55 168l-205 -168h-230z" />
<glyph unicode="&#xfc;" horiz-adv-x="1138" d="M242 76q-34 96 37 260l324 729h254l-307 -692q-47 -109 -32 -149t80 -40q84 0 161 38t126 75l340 768h254l-471 -1065h-234l50 115q-92 -49 -191.5 -92t-194.5 -43q-162 0 -196 96zM794 1221l105 237h246l-106 -237h-245zM1183 1221l105 237h246l-106 -237h-245z" />
<glyph unicode="&#xfd;" horiz-adv-x="909" d="M-147 -381l91 209q28 -6 51.5 -7t50.5 -1q68 0 115.5 19.5t91.5 64.5q35 39 58.5 65.5t36.5 59.5q13 29 16 61.5t9 65.5l117 909h256l-114 -655h4l472 655h254l-807 -1067q-94 -115 -167.5 -189.5t-139.5 -118.5t-132.5 -61.5t-144.5 -17.5q-47 0 -72 2t-46 6zM821 1200 l324 299h315l-430 -299h-209z" />
<glyph unicode="&#xfe;" horiz-adv-x="1138" d="M45 -389l414 1868h243l-112 -512q68 53 139.5 85.5t157.5 32.5q106 0 177 -44t106.5 -121.5t38.5 -184t-23 -231.5q-23 -98 -72 -192.5t-119.5 -168t-160 -118.5t-191.5 -45q-33 0 -67.5 9t-67.5 24.5t-58.5 38t-37.5 46.5h-4l-109 -487h-254zM446 274q31 -35 73 -62.5 t104 -27.5q115 0 195.5 89t119.5 259q37 170 -5 259.5t-157 89.5q-41 0 -70.5 -9.5t-54 -22.5t-46 -29.5t-46.5 -33.5z" />
<glyph unicode="&#xff;" horiz-adv-x="909" d="M-147 -381l91 209q28 -6 51.5 -7t50.5 -1q68 0 115.5 19.5t91.5 64.5q35 39 58.5 65.5t36.5 59.5q13 29 16 61.5t9 65.5l117 909h256l-114 -655h4l472 655h254l-807 -1067q-94 -115 -167.5 -189.5t-139.5 -118.5t-132.5 -61.5t-144.5 -17.5q-47 0 -72 2t-46 6zM679 1221 l105 237h246l-106 -237h-245zM1068 1221l105 237h246l-106 -237h-245z" />
<glyph unicode="&#x152;" horiz-adv-x="1933" d="M156 411.5q-6 141.5 34 327.5q82 373 284 566.5t558 193.5q66 0 148 -10t172 -10h825l-53 -238h-627l-78 -352h443l-54 -238h-442l-90 -413h661l-53 -238h-825q-90 0 -181.5 -10t-181.5 -10q-180 0 -296.5 49t-177 145t-66.5 237.5zM440 471q4 -102 39 -158.5t94.5 -76 t128.5 -19.5q78 0 135.5 14.5t99.5 51t71.5 100t52.5 162.5l86 389q23 98 20.5 161.5t-28 100.5t-76.5 51.5t-127 14.5q-72 0 -139.5 -19.5t-127 -76t-109.5 -159t-87 -268.5t-33 -268z" />
<glyph unicode="&#x153;" horiz-adv-x="1593" d="M124 303.5q-9 102.5 19 228.5q27 127 81.5 229.5t129 174.5t166.5 110.5t195 38.5q106 0 182 -32.5t119 -104.5q139 137 330 137q104 0 174.5 -39.5t110.5 -107.5t49.5 -157t-11.5 -185l-24 -104h-623q-33 -166 5 -237t153 -71q72 0 126 36t115 91l158 -114 q-98 -115 -215 -166t-246 -51q-106 0 -175 37.5t-107 103.5q-72 -72 -164 -106.5t-201 -34.5q-104 0 -179 38.5t-117 110.5t-51 174.5zM388 268q32 -84 132 -84t169 84t110 264q39 180 7 264.5t-132 84.5t-169 -84.5t-108 -264.5q-41 -180 -9 -264zM1061 664h389 q20 111 -18.5 172t-124.5 61q-84 0 -152 -61.5t-94 -171.5z" />
<glyph unicode="&#x178;" horiz-adv-x="1138" d="M428 0l262 590l-14 889h295l-5 -586l513 586h295l-801 -889l-262 -590h-283zM874 1590l105 237h246l-106 -237h-245zM1263 1590l105 237h246l-106 -237h-245z" />
<glyph unicode="&#x2c6;" horiz-adv-x="569" d="M190 1200l297 299h254l170 -299h-231l-92 168l-168 -168h-230z" />
<glyph unicode="&#x2dc;" horiz-adv-x="569" d="M180 1217q16 47 44 92t65 79.5t82 56t98 21.5q41 0 79 -12t72.5 -25.5t64.5 -25.5t54 -12q37 0 68 26.5t47 61.5h133q-20 -47 -47 -92.5t-60.5 -80t-76.5 -56t-98 -21.5q-39 0 -77 11t-74 24.5t-69.5 24.5t-64.5 11q-43 0 -67.5 -24.5t-45.5 -58.5h-127z" />
<glyph unicode="&#x2000;" horiz-adv-x="1004" />
<glyph unicode="&#x2001;" horiz-adv-x="2009" />
<glyph unicode="&#x2002;" horiz-adv-x="1004" />
<glyph unicode="&#x2003;" horiz-adv-x="2009" />
<glyph unicode="&#x2004;" horiz-adv-x="669" />
<glyph unicode="&#x2005;" horiz-adv-x="502" />
<glyph unicode="&#x2006;" horiz-adv-x="334" />
<glyph unicode="&#x2007;" horiz-adv-x="334" />
<glyph unicode="&#x2008;" horiz-adv-x="251" />
<glyph unicode="&#x2009;" horiz-adv-x="401" />
<glyph unicode="&#x200a;" horiz-adv-x="111" />
<glyph unicode="&#x2010;" horiz-adv-x="681" d="M184 422l49 221h502l-49 -221h-502z" />
<glyph unicode="&#x2011;" horiz-adv-x="681" d="M184 422l49 221h502l-49 -221h-502z" />
<glyph unicode="&#x2012;" horiz-adv-x="681" d="M184 422l49 221h502l-49 -221h-502z" />
<glyph unicode="&#x2013;" horiz-adv-x="1024" d="M98 446l39 172h1024l-39 -172h-1024z" />
<glyph unicode="&#x2014;" horiz-adv-x="2048" d="M98 446l39 172h2048l-39 -172h-2048z" />
<glyph unicode="&#x2018;" horiz-adv-x="569" d="M344 901l64 291l198 307h133l-172 -307h123l-63 -291h-283z" />
<glyph unicode="&#x2019;" horiz-adv-x="569" d="M356 881l174 307h-122l63 291h283l-64 -291l-201 -307h-133z" />
<glyph unicode="&#x201a;" horiz-adv-x="569" d="M94 -307l172 307h-123l64 291h282l-63 -291l-199 -307h-133z" />
<glyph unicode="&#x201c;" horiz-adv-x="909" d="M287 901l63 291l199 307h133l-172 -307h123l-64 -291h-282zM743 901l64 291l199 307h133l-172 -307h123l-64 -291h-283z" />
<glyph unicode="&#x201d;" horiz-adv-x="909" d="M297 881l174 307h-123l64 291h282l-63 -291l-201 -307h-133zM754 881l174 307h-123l63 291h283l-64 -291l-200 -307h-133z" />
<glyph unicode="&#x201e;" horiz-adv-x="909" d="M35 -307l172 307h-123l63 291h283l-63 -291l-199 -307h-133zM492 -307l172 307h-123l63 291h283l-64 -291l-198 -307h-133z" />
<glyph unicode="&#x2022;" horiz-adv-x="1024" d="M302 595.5q-13 67.5 3 143.5q16 78 60.5 144.5t105.5 117t134 79t151 28.5q76 0 137 -28.5t100 -79t53.5 -117t-2.5 -144.5q-16 -76 -60 -143.5t-105.5 -118.5t-136 -79.5t-150.5 -28.5q-78 0 -138.5 28.5t-99.5 79.5t-52 118.5z" />
<glyph unicode="&#x2026;" horiz-adv-x="2048" d="M197 0l63 291h291l-64 -291h-290zM879 0l63 291h291l-64 -291h-290zM1561 0l63 291h291l-64 -291h-290z" />
<glyph unicode="&#x202f;" horiz-adv-x="401" />
<glyph unicode="&#x2039;" horiz-adv-x="681" d="M201 526l319 334h230l-326 -334l180 -321h-229z" />
<glyph unicode="&#x203a;" horiz-adv-x="681" d="M168 205l324 321l-179 334h230l172 -334l-318 -321h-229z" />
<glyph unicode="&#x205f;" horiz-adv-x="502" />
<glyph unicode="&#x2122;" horiz-adv-x="2048" d="M334 1307l39 172h698l-39 -172h-248l-147 -672h-205l148 672h-246zM1053 635l186 844h305l74 -529h4l305 529h305l-186 -844h-205l127 575l-8 4l-332 -579h-158l-77 577h-9l-127 -577h-204z" />
<glyph unicode="&#x25fc;" horiz-adv-x="1064" d="M0 0v1065h1065v-1065h-1065z" />
<glyph unicode="&#xfb01;" horiz-adv-x="1138" d="M172 0l190 860h-147l45 205h146l28 131q39 172 126 237.5t243 65.5h168l-45 -205h-70q-80 0 -118 -26.5t-50 -87.5l-26 -115h215l-46 -205h-215l-190 -860h-254zM754 0l235 1065h254l-235 -1065h-254zM1034 1262l51 237h254l-51 -237h-254z" />
<glyph unicode="&#xfb02;" horiz-adv-x="1138" d="M172 0l190 860h-147l45 205h146l28 131q39 172 126 237.5t243 65.5h168l-45 -205h-70q-80 0 -118 -26.5t-50 -87.5l-26 -115h215l-46 -205h-215l-190 -860h-254zM754 0l327 1479h254l-327 -1479h-254z" />
</font>
</defs>
</svg>
