<?xml version="1.0" standalone="no"?>
<!DOCTYPE svg PUBLIC "-//W3C//DTD SVG 1.1//EN" "http://www.w3.org/Graphics/SVG/1.1/DTD/svg11.dtd" >
<svg xmlns="http://www.w3.org/2000/svg">
<metadata></metadata>
<defs>
<font id="tradegothiclight_2" horiz-adv-x="1138" >
<font-face units-per-em="2048" ascent="1638" descent="-410" />
<missing-glyph horiz-adv-x="569" />
<glyph horiz-adv-x="0" />
<glyph horiz-adv-x="0" />
<glyph unicode="&#xd;" horiz-adv-x="512" />
<glyph unicode=" "  horiz-adv-x="569" />
<glyph unicode="&#x09;" horiz-adv-x="569" />
<glyph unicode="&#xa0;" horiz-adv-x="569" />
<glyph unicode="!" horiz-adv-x="454" d="M139 0l41 184h176l-41 -184h-176zM276 455l191 1024h176l-264 -1024h-103z" />
<glyph unicode="&#x22;" horiz-adv-x="681" d="M401 1016l103 463h102l-102 -463h-103zM629 1016l102 463h103l-103 -463h-102z" />
<glyph unicode="#" d="M158 481l22 99h254l119 321h-242l21 98h254l174 480h102l-174 -480h301l174 480h103l-174 -480h217l-21 -98h-231l-117 -321h217l-22 -99h-232l-174 -481h-100l174 481h-303l-174 -481h-101l174 481h-241zM537 580h301l118 321h-303z" />
<glyph unicode="$" d="M125 299l113 68q12 -55 37.5 -104.5t64.5 -85.5t90 -57.5t115 -21.5l133 609q-68 20 -134.5 50.5t-114.5 77t-69.5 112t-3.5 155.5q20 92 67.5 162.5t113 118t146.5 71t167 25.5l33 143h98l-33 -143q70 -2 127.5 -25.5t100.5 -57.5t69.5 -76t36.5 -83q-2 0 -16.5 -10 t-33 -22.5t-34.5 -24t-20 -13.5q-27 88 -89.5 143.5t-162.5 67.5l-127 -577q72 -23 143.5 -53.5t124.5 -78.5t77.5 -117t4.5 -165q-20 -94 -73.5 -165.5t-125 -121t-157.5 -75t-172 -25.5l-54 -244h-98l53 244q-150 6 -256 83t-141 216zM469 1112q-14 -68 1 -115t50 -79.5 t84 -53t103 -35.5l120 551q-57 0 -115.5 -18.5t-107.5 -53t-85 -84.5t-50 -112zM643 98q61 0 127 22.5t120 61.5t95 92.5t53 116.5q16 68 -5 114t-62 78.5t-94.5 55.5t-104.5 41z" />
<glyph unicode="%" horiz-adv-x="1820" d="M419 1012.5q-13 60.5 3 130.5q14 70 54 130t96.5 106t122.5 73t136 27t125.5 -27t90 -73t48 -106.5t-0.5 -129.5q-16 -70 -56.5 -130.5t-95.5 -106.5t-122.5 -72.5t-137.5 -26.5q-68 0 -123 26.5t-91 72.5t-49 106.5zM420 -20l1204 1519h109l-1207 -1519h-106zM517 1051 q9 -43 35 -76t64.5 -51.5t88.5 -18.5q49 0 97 18.5t87 51.5t67.5 76t38.5 92t2 92t-33.5 75.5t-65.5 51t-89 18.5t-96 -18.5t-87 -51t-68 -75.5t-38 -92q-12 -49 -3 -92zM1053.5 205.5q-13.5 60.5 1.5 130.5q16 70 56 130t96.5 106t122.5 73t136 27q68 0 123.5 -27t91 -73 t49 -106t-3.5 -130q-14 -70 -54 -130.5t-96 -106.5t-123 -72.5t-136 -26.5q-70 0 -125 26.5t-90 72.5t-48.5 106.5zM1151 244q8 -43 33.5 -76t65.5 -51.5t89 -18.5t96.5 18.5t87.5 51.5t67.5 76t37.5 92q12 49 3 92t-33.5 76t-64.5 51t-89 18t-97.5 -18t-87 -51t-67.5 -76 t-39 -92t-2 -92z" />
<glyph unicode="&#x26;" horiz-adv-x="1366" d="M167.5 192.5q-20.5 71.5 0.5 167.5q18 82 51 144.5t86 118t129 108.5t182 115q-35 76 -48 165t7 179q33 147 132.5 228t238.5 81q127 0 194.5 -73.5t39.5 -208.5q-16 -76 -56.5 -135.5t-94.5 -110.5t-117.5 -94t-129.5 -84q59 -123 112.5 -246t127.5 -225 q152 172 235 374l123 -24q-106 -242 -284 -436q41 -53 95 -91.5t130 -42.5l-27 -122q-98 4 -176 48t-133 113q-102 -78 -221 -119.5t-236 -41.5q-88 0 -162.5 23.5t-126 70.5t-72 118.5zM301 352q-14 -66 2 -115t54 -81.5t90.5 -49t111.5 -16.5q66 0 121 15.5t101 37t81 47 t58 43.5q-29 35 -67 98.5t-76 137.5t-70.5 145.5t-51.5 122.5q-70 -33 -127 -69.5t-102 -81.5t-77 -101.5t-48 -132.5zM700 1034.5q9 -69.5 37 -129.5q57 29 108.5 65t92.5 78t69.5 87t39.5 90q14 70 -14.5 117t-117.5 47q-72 0 -126.5 -49t-81.5 -164q-16 -72 -7 -141.5z " />
<glyph unicode="'" horiz-adv-x="454" d="M401 1016l103 463h102l-102 -463h-103z" />
<glyph unicode="(" horiz-adv-x="681" d="M258 457.5q6 107.5 29 208.5q45 203 163.5 423t303.5 410h147q-100 -94 -181 -198.5t-142.5 -212t-103.5 -215t-64 -207.5q-23 -100 -28 -208t8 -215.5t48 -212t94 -198.5h-147q-49 94 -80 198.5t-42 212t-5 215z" />
<glyph unicode=")" horiz-adv-x="681" d="M76 -168q100 94 181 198.5t142.5 212t103.5 215t64 208.5q23 100 29 207.5t-8.5 215t-49 212t-94.5 198.5h148q51 -94 80.5 -198.5t41 -212t5.5 -215t-29 -207.5q-45 -203 -163.5 -423t-303.5 -411h-147z" />
<glyph unicode="*" horiz-adv-x="1024" d="M442 1188l60 106l248 -104l36 289h111l-86 -289l291 108l8 -102l-301 -70l139 -211l-106 -71l-82 254l-201 -254l-78 61l240 221z" />
<glyph unicode="+" horiz-adv-x="1228" d="M188 477l25 111h477l105 477h110l-104 -477h477l-25 -111h-477l-106 -477h-111l107 477h-478z" />
<glyph unicode="," horiz-adv-x="569" d="M96 -307l187 307h-86l41 184h176l-41 -184l-197 -307h-80z" />
<glyph unicode="-" horiz-adv-x="681" d="M193 477l24 111h510l-25 -111h-509z" />
<glyph unicode="." horiz-adv-x="569" d="M197 0l41 184h176l-41 -184h-176z" />
<glyph unicode="/" horiz-adv-x="569" d="M-29 -20l842 1519h113l-834 -1519h-121z" />
<glyph unicode="0" d="M185 444.5q1 139.5 36 294.5q35 158 95.5 296.5t145.5 240.5t194.5 162.5t244.5 60.5t219 -60.5t123 -162.5t38 -240.5t-36 -296.5q-35 -156 -94 -295t-145 -241.5t-196 -162.5t-245 -60t-219 60t-123 162.5t-38 242zM318 476q-5 -120 23 -206t88 -133t161 -47 q100 0 181 47t146.5 133t112.5 206t80 263q33 145 38 264t-21.5 205t-88 133.5t-161.5 47.5q-98 0 -180.5 -47.5t-148 -133.5t-112.5 -204.5t-80 -264.5q-33 -143 -38 -263z" />
<glyph unicode="1" d="M274 0l25 111h254l274 1241l-290 -41l18 80l354 108h86l-307 -1388h246l-25 -111h-635z" />
<glyph unicode="2" d="M90 0l19 86q8 39 39.5 90t102.5 120t189.5 160t302.5 208q125 80 198 134t113 98t56 86t29 99q31 133 -28.5 220.5t-229.5 87.5q-133 0 -241 -84t-181 -250l-113 22q80 201 231.5 311.5t342.5 110.5q203 0 294 -110.5t48 -303.5q-14 -70 -44 -130t-84.5 -119.5 t-138.5 -123t-209 -139.5q-72 -45 -161.5 -103t-170.5 -120.5t-141.5 -124t-74.5 -114.5h811l-25 -111h-934z" />
<glyph unicode="3" d="M90 274l121 62q37 -141 117 -193.5t225 -52.5q186 0 293.5 83t142.5 241q35 160 -55 237.5t-301 77.5h-135l24 111h111q201 0 318.5 69.5t150.5 216.5q31 139 -41 201t-223 62q-102 0 -192.5 -47.5t-190.5 -145.5l-80 70q133 127 255 180t242 53q72 0 147 -17.5 t132 -59.5t84 -110.5t4 -172.5q-29 -129 -100.5 -209t-212.5 -139q55 -23 100 -56t72.5 -78t35 -104t-9.5 -135q-25 -117 -81 -200t-136 -136t-178 -77.5t-207 -24.5q-182 0 -292.5 71.5t-139.5 222.5z" />
<glyph unicode="4" d="M111 373l24 104l871 1002h180l-221 -998h223l-25 -108h-223l-82 -373h-135l82 373h-694zM270 483h559l193 869h-14z" />
<glyph unicode="5" d="M152 256l124 72q35 -127 109 -182.5t193 -55.5q98 0 177 33t137 88t95 125t53 143q39 176 -27.5 285.5t-232.5 109.5q-49 0 -101 -14t-103.5 -39.5t-96.5 -63.5t-78 -87l-102 18l242 791h735l-25 -111h-635l-155 -514q168 131 362 131q106 0 181 -40t118 -107.5 t54.5 -157.5t-11.5 -191q-25 -111 -79 -205t-134 -161.5t-184 -105t-231 -37.5q-139 0 -245 69.5t-140 206.5z" />
<glyph unicode="6" d="M190.5 432q6.5 127 34.5 254q31 139 96.5 283.5t163 262.5t226.5 192.5t284 74.5q98 0 179 -31.5t145 -91.5l-84 -100q-43 66 -111.5 89.5t-154.5 23.5q-127 0 -227.5 -63.5t-175 -161t-124 -214t-71.5 -221.5q92 84 208.5 140.5t231.5 56.5q113 0 192.5 -38t127 -103.5 t59.5 -154.5t-12 -192q-23 -106 -82.5 -191t-141.5 -144.5t-179 -91t-197 -31.5q-156 0 -240 62t-119 162.5t-28.5 227.5zM330 526q-45 -201 30.5 -318.5t245.5 -117.5q172 0 288 98.5t155 272.5q16 76 7 140.5t-45 112.5t-97.5 74.5t-149.5 26.5q-82 0 -158 -38t-136 -87 t-98 -96t-42 -68z" />
<glyph unicode="7" d="M252 0l934 1368h-770l24 111h914l-19 -80l-938 -1399h-145z" />
<glyph unicode="8" d="M130.5 193.5q-21.5 76.5 2.5 187.5q25 111 122 211t306 186q-127 49 -180 136t-25 210q41 186 187.5 280.5t357.5 94.5t316.5 -94t64.5 -281q-29 -123 -119 -210t-241 -136q172 -86 224 -186t28 -211q-25 -111 -79.5 -187.5t-134 -123.5t-180 -68.5t-215.5 -21.5 t-206 21.5t-149 68.5t-79.5 123.5zM268 381q-16 -76 1.5 -130t61.5 -90t110.5 -53.5t148.5 -17.5t155.5 17.5t133 53.5t101.5 90t58 130q14 59 -2 106.5t-57 87t-104.5 74.5t-145.5 72q-98 -37 -178 -72t-138.5 -74.5t-94.5 -87t-50 -106.5zM492 1130q-12 -59 2 -106t51 -84 t90 -63.5t119 -45.5q74 18 139 45t117.5 64t88.5 84t48 106q31 131 -47 195t-223 64t-249.5 -64t-135.5 -195z" />
<glyph unicode="9" d="M127 102l84 105q45 -53 102.5 -85t157.5 -32q129 0 229.5 56.5t174 148.5t123 207.5t75.5 234.5q-94 -86 -209.5 -143t-232.5 -57q-113 0 -193 39.5t-126 105.5t-59 151t7 175q27 117 87.5 208t142 154.5t180 96t198.5 32.5q156 0 240 -62.5t119 -162.5t28.5 -227 t-34.5 -254q-31 -139 -90.5 -283.5t-150.5 -262.5t-214 -192.5t-283 -74.5q-123 0 -208 31.5t-148 90.5zM389 870.5q8 -67.5 43 -116.5t96.5 -78t149.5 -29q82 0 158.5 38t136 88t98.5 98.5t43 68.5q47 211 -28.5 330t-245.5 119q-172 0 -288 -98.5t-155 -272.5 q-16 -80 -8 -147.5z" />
<glyph unicode=":" horiz-adv-x="569" d="M197 0l41 184h176l-41 -184h-176zM334 623l41 184h176l-41 -184h-176z" />
<glyph unicode=";" horiz-adv-x="569" d="M96 -307l187 307h-86l41 184h176l-41 -184l-197 -307h-80zM334 623l41 184h176l-41 -184h-176z" />
<glyph unicode="&#x3c;" horiz-adv-x="1228" d="M186 475l27 115l1173 487l-26 -119l-1020 -426l831 -426l-26 -118z" />
<glyph unicode="=" horiz-adv-x="1228" d="M141 272l25 111h1065l-25 -111h-1065zM233 682l25 111h1065l-25 -111h-1065z" />
<glyph unicode="&#x3e;" horiz-adv-x="1228" d="M80 -12l26 118l1020 426l-831 426l27 119l956 -487l-27 -115z" />
<glyph unicode="?" horiz-adv-x="796" d="M238 0l41 184h176l-41 -184h-176zM336 1247q68 115 165 183.5t228 68.5q68 0 124 -21.5t93 -63.5t51.5 -104.5t-4.5 -144.5q-23 -102 -93.5 -176t-150 -139.5t-149.5 -135t-92 -165.5l-21 -98h-110l33 147q16 80 81.5 146.5t141.5 134t143.5 143.5t87.5 170 q20 96 -26.5 146.5t-135.5 50.5q-49 0 -92 -18.5t-76.5 -46.5t-60.5 -62.5t-47 -65.5z" />
<glyph unicode="@" horiz-adv-x="1638" d="M256 448.5q-27 139.5 8 296.5q35 156 125 293.5t215 239.5t275.5 161.5t302.5 59.5q145 0 259.5 -47t189.5 -132t103.5 -200.5t-1.5 -253.5q-27 -119 -93.5 -225t-151.5 -186t-178 -127t-173 -47q-53 0 -86 35.5t-21 107.5l-6 -4q-59 -51 -138 -95t-161 -44 q-63 0 -109.5 24.5t-73 65.5t-33.5 97t5 118q25 109 85 217t144 194t188.5 140.5t215.5 54.5q72 0 122 -40t62 -134l84 135h111l-336 -604q-16 -33 -30.5 -62.5t-20.5 -52.5q-12 -59 41 -59q61 0 131.5 45t134 116.5t113 159.5t67.5 176q29 123 2.5 221.5t-91 169 t-161 108.5t-209.5 38q-139 0 -270 -54.5t-238.5 -147.5t-184.5 -216t-107 -260q-31 -135 -5.5 -256t94 -211t176 -142t242.5 -52q76 0 158 19.5t161 56t152.5 89t133.5 117.5h106q-68 -86 -152.5 -155.5t-181 -117.5t-198 -73.5t-199.5 -25.5q-162 0 -288 60t-204.5 164.5 t-105.5 244zM645 596q-23 -94 17 -151.5t116 -57.5q74 0 148.5 52.5t138 128t110 162.5t62.5 157q8 37 2 72.5t-23.5 63.5t-44 45t-57.5 17q-80 0 -156.5 -48t-141 -121.5t-109.5 -159.5t-62 -160z" />
<glyph unicode="A" horiz-adv-x="1251" d="M51 0l801 1479h207l139 -1479h-143l-43 483h-559l-258 -483h-144zM512 594h494l-74 774h-4z" />
<glyph unicode="B" horiz-adv-x="1366" d="M205 0l327 1479h414q274 1 380 -89q75 -64 75 -180q0 -47 -12 -102q-27 -121 -92.5 -194.5t-188.5 -125.5q111 -53 163 -147q33 -59 33 -136q0 -46 -12 -99q-27 -115 -81 -193t-133 -125t-181 -67.5t-221 -20.5h-471zM365 111h350q197 0 303 72.5t141 230.5q8 34 8 66 q0 26 -6 52q-12 56 -54 96t-115.5 62.5t-186.5 22.5h-307zM522 823h322q66 0 130 12.5t120.5 43t97.5 84t59 135.5q10 46 10 83q0 28 -6 51q-14 52 -57 83t-115.5 42t-173.5 11h-266z" />
<glyph unicode="C" horiz-adv-x="1251" d="M232 428q-2 25 -2 51q0 119 32 260q39 172 108.5 311.5t165 240t213 154.5t250.5 54q100 0 170 -32.5t115 -90t67.5 -136.5t26.5 -169l-131 -27q-12 164 -80.5 254.5t-203.5 90.5q-109 0 -200 -50.5t-162 -138.5t-122 -207t-82 -254q-32 -137 -31 -257q0 -116 32 -204 q34 -88 105.5 -138t186.5 -50q88 0 158 30t123 79t95 114.5t77 137.5l121 -23q-43 -98 -98.5 -181t-128 -142.5t-166 -92t-207.5 -32.5q-135 0 -228.5 54t-144.5 154.5t-59 239.5z" />
<glyph unicode="D" horiz-adv-x="1366" d="M205 0l327 1479h418q172 0 280.5 -60.5t164 -162t61.5 -235.5q1 -21 1 -43q0 -115 -27 -239q-33 -147 -98.5 -281t-166 -235.5t-235.5 -162t-307 -60.5h-418zM365 111h286q248 0 412 163.5t231 464.5q29 128 29 231q0 140 -53 234q-92 164 -340 164h-287z" />
<glyph unicode="E" d="M205 0l327 1479h844l-24 -111h-709l-121 -545h510l-24 -110h-510l-133 -602h747l-25 -111h-882z" />
<glyph unicode="F" d="M205 0l327 1479h869l-25 -111h-733l-121 -545h535l-25 -110h-534l-158 -713h-135z" />
<glyph unicode="G" horiz-adv-x="1366" d="M232 414q-2 30 -2 64q0 117 32 261q41 184 117 325.5t175 238t215 146.5t235 50q104 0 181 -31.5t127 -88t74 -135.5q23 -73 23 -159v-14l-131 -22q-2 72 -19.5 133t-53.5 107t-94 73t-140 27q-96 0 -186.5 -45.5t-165 -130.5t-132 -204.5t-90.5 -269.5 q-27 -119 -32 -235q-1 -16 -1 -31q0 -98 29 -178q33 -92 112 -148.5t222 -56.5q78 0 147.5 27.5t126 77t95.5 114t55 137.5l31 136h-373l25 110h507l-153 -692h-117l33 145h-4q-86 -86 -185.5 -125.5t-252.5 -39.5q-125 0 -217.5 50t-146.5 146t-66 238z" />
<glyph unicode="H" horiz-adv-x="1478" d="M205 0l327 1479h136l-146 -656h799l145 656h136l-328 -1479h-135l157 713h-798l-158 -713h-135z" />
<glyph unicode="I" horiz-adv-x="569" d="M217 0l328 1479h135l-328 -1479h-135z" />
<glyph unicode="J" horiz-adv-x="909" d="M39 176l123 64q14 -39 28.5 -67t37 -46t54 -27.5t80.5 -9.5q98 0 162 62.5t94 199.5l250 1127h136l-259 -1168q-37 -166 -148.5 -248.5t-266.5 -82.5q-68 0 -115 12t-81 36.5t-55.5 61.5t-39.5 86z" />
<glyph unicode="K" horiz-adv-x="1251" d="M205 0l327 1479h136l-179 -803l854 803h166l-602 -566l332 -913h-152l-288 815l-350 -321l-109 -494h-135z" />
<glyph unicode="L" horiz-adv-x="1024" d="M205 0l327 1479h136l-303 -1368h659l-25 -111h-794z" />
<glyph unicode="M" horiz-adv-x="1705" d="M205 0l327 1479h238l129 -1254h4l688 1254h238l-328 -1479h-135l303 1368h-4l-747 -1368h-130l-141 1368h-4l-303 -1368h-135z" />
<glyph unicode="N" horiz-adv-x="1478" d="M205 0l327 1479h228l430 -1233h4l272 1233h136l-328 -1479h-139l-488 1368h-4l-303 -1368h-135z" />
<glyph unicode="O" horiz-adv-x="1366" d="M234 436q-2 26 -2 53q0 117 30 250q37 164 106.5 303.5t167 240.5t218.5 158.5t260 57.5t235.5 -57.5t148.5 -158.5t60 -241q1 -25 2 -51q0 -118 -30 -252q-37 -164 -107 -303t-167 -240.5t-218 -158.5t-260 -57t-235.5 57t-148.5 158.5t-60 240.5zM397 739 q-32 -142 -32 -255q0 -135 46 -226q84 -168 291 -168q205 0 364 168t228 481q32 142 32 255q0 134 -46 226q-84 168 -291 169q-205 0 -363.5 -168t-228.5 -482z" />
<glyph unicode="P" horiz-adv-x="1251" d="M205 0l327 1479h447q133 0 221 -30t136 -83t60 -130q5 -30 6 -61q0 -51 -13 -108q-43 -186 -185.5 -299t-406.5 -113h-312l-145 -655h-135zM510 766h311q193 0 296.5 77t135.5 224q10 46 10 85q1 86 -47 139q-68 77 -262 77h-311z" />
<glyph unicode="Q" horiz-adv-x="1366" d="M234 436q-2 26 -2 53q0 117 30 250q37 164 106.5 303.5t167 240.5t218 158.5t260.5 57.5q139 0 235.5 -57.5t148.5 -158.5t60 -241q1 -25 1 -51q0 -118 -29 -252q-41 -188 -126 -341.5t-208 -256.5q31 -84 78 -112.5t145 -28.5l-27 -123q-49 0 -96 9.5t-88 32t-72.5 58 t-48.5 86.5q-141 -83 -305 -83h-4q-139 0 -235.5 57t-148.5 158.5t-60 240.5zM397 739q-32 -142 -32 -254q0 -135 47 -227q84 -168 290 -168q135 0 250 74q-31 82 -64.5 114.5t-94.5 43.5l28 133q170 -31 244 -197q78 84 136.5 204t92.5 277q32 142 32 255q0 135 -46 226 q-84 169 -291 169q-205 0 -363.5 -168t-228.5 -482z" />
<glyph unicode="R" horiz-adv-x="1366" d="M205 0l327 1479h500q218 1 312 -109q66 -77 66 -192q0 -47 -11 -101q-33 -147 -128 -241.5t-263 -135.5l206 -700h-147l-195 676h-383l-149 -676h-135zM514 786h365q150 0 252 77t133 214q10 45 10 84q0 79 -42 130q-63 77 -224 77h-365z" />
<glyph unicode="S" d="M150 375l133 39q6 -170 90 -247t260 -77q139 0 234.5 80t125.5 215q6 31 6 57q1 62 -31 102q-46 58 -126 98t-176.5 74t-175 82t-120.5 122q-26 45 -26 109q0 40 10 87q18 82 61.5 152.5t109 122t151.5 80t188 28.5q176 0 279.5 -91t116.5 -263l-125 -35q-12 123 -82 201 t-213 78q-129 0 -225.5 -71t-125.5 -202q-7 -33 -7 -63v-7q1 -34 24.5 -66t76 -65.5t146.5 -72.5q143 -57 229 -108.5t129 -106t49 -115.5q2 -16 2 -32q0 -49 -14 -109q-20 -94 -73.5 -167t-126 -123t-159.5 -75.5t-177 -25.5q-213 0 -317.5 95t-120.5 300z" />
<glyph unicode="T" d="M367 1368l24 111h1012l-25 -111h-438l-303 -1368h-135l303 1368h-438z" />
<glyph unicode="U" horiz-adv-x="1478" d="M311 483l221 996h136l-224 -1008q-17 -76 -17 -136q0 -106 53 -160q83 -85 280 -85t316.5 85t166.5 296l223 1008h136l-222 -996q-111 -503 -643 -503h-2q-443 0 -443 345q0 72 19 158z" />
<glyph unicode="V" d="M344 1479h143l117 -1286h4l699 1286h143l-819 -1479h-135z" />
<glyph unicode="W" horiz-adv-x="1705" d="M360 1479h138l43 -1233h4l567 1233h135l17 -1233h4l594 1233h137l-723 -1479h-135l-19 1217h-4l-559 -1217h-135z" />
<glyph unicode="X" d="M25 0l632 774l-278 705h160l223 -590l477 590h160l-582 -705l297 -774h-160l-245 647l-525 -647h-159z" />
<glyph unicode="Y" d="M369 1479h151l203 -731l551 731h151l-657 -852l-139 -627h-135l139 627z" />
<glyph unicode="Z" d="M94 0l25 111l1050 1257h-708l24 111h877l-25 -115l-1050 -1253h782l-25 -111h-950z" />
<glyph unicode="[" horiz-adv-x="681" d="M147 -147l361 1626h381l-17 -74h-258l-327 -1479h258l-17 -73h-381z" />
<glyph unicode="\" horiz-adv-x="569" d="M307 1499h113l170 -1519h-121z" />
<glyph unicode="]" horiz-adv-x="681" d="M88 -147l16 73h258l328 1479h-258l17 74h380l-360 -1626h-381z" />
<glyph unicode="^" horiz-adv-x="1228" d="M250 606l637 873h108l254 -873h-135l-209 725l-520 -725h-135z" />
<glyph unicode="_" horiz-adv-x="1024" d="M-57 -256l22 102h1024l-22 -102h-1024z" />
<glyph unicode="`" horiz-adv-x="454" d="M297 1466h158l163 -282h-104z" />
<glyph unicode="a" horiz-adv-x="1024" d="M111 258q25 109 84 178.5t155 115.5t230.5 79t310.5 69l16 74q8 38 8 69q0 57 -26 91q-41 54 -178 53q-96 0 -184.5 -50t-168.5 -142l-71 49q98 129 208.5 185t239.5 56q184 1 254 -77q44 -49 44 -138q0 -52 -15 -118l-123 -557q-8 -41 -16.5 -91.5t-10.5 -103.5h-118 l12 129q-55 -37 -105.5 -65.5t-99.5 -47t-101.5 -27.5t-113.5 -9q-124 0 -192 72q-47 51 -48 132q0 34 9 74zM233 260q-5 -26 -6 -48q0 -54 31 -87q43 -47 125 -47q88 0 195.5 47t205.5 129l78 348q-190 -39 -309 -79t-185.5 -81t-94 -86t-40.5 -96z" />
<glyph unicode="b" d="M188 0l328 1479h123l-123 -553q98 84 180 121.5t189 37.5q94 0 161.5 -40.5t107.5 -114.5t48 -174q2 -24 2 -49q0 -80 -20 -168q-59 -274 -200.5 -416.5t-350.5 -142.5q-111 0 -188.5 37.5t-118.5 121.5l-52 -139h-86zM371 272q43 -82 103.5 -138t172.5 -56 q80 0 146.5 33.5t118 93t88 139.5t57.5 172q22 98 22 180q-1 4 -1 10q-2 86 -29 149t-81.5 97.5t-136.5 34.5q-45 0 -96 -19.5t-99 -49t-87 -62.5t-62 -59z" />
<glyph unicode="c" horiz-adv-x="1024" d="M173 310q-1 21 -1 43q0 84 21 179q31 137 86 241t130.5 173.5t168 104t194.5 34.5q152 0 229.5 -77.5t96.5 -210.5l-119 -31q-20 92 -70.5 156.5t-156.5 64.5q-76 0 -143.5 -24.5t-124 -79t-99.5 -141.5t-70 -210q-20 -89 -20 -163q1 -11 1 -23q4 -84 34 -143.5t84.5 -92 t134.5 -32.5q115 0 197.5 58.5t171.5 162.5l88 -47q-45 -57 -97.5 -106.5t-112 -86t-126 -58t-142.5 -21.5q-113 0 -189.5 40.5t-117.5 114t-48 175.5z" />
<glyph unicode="d" d="M193 539q27 117 80 217t124.5 174t157.5 114.5t178 40.5q109 0 174.5 -37.5t124.5 -121.5l123 553h123l-328 -1479h-86l10 139q-78 -84 -173 -121.5t-203 -37.5q-209 0 -287 142q-44 80 -44 203q0 94 26 214zM292 344q1 -80 26.5 -139.5t75.5 -93t130 -33.5q115 0 200 55 t163 139l117 525q-8 27 -33 59.5t-59.5 62t-77.5 49t-89 19.5q-84 0 -153.5 -34.5t-123.5 -97t-94 -148.5t-63 -191q-19 -88 -19 -164v-8z" />
<glyph unicode="e" horiz-adv-x="1024" d="M193 532q27 123 80 225.5t125.5 175.5t162.5 112.5t191 39.5q109 0 180.5 -40.5t107 -114.5t39.5 -176q0 -13 1 -26q0 -92 -25 -200h-742q-18 -82 -18 -157v-15q2 -82 29.5 -143t84 -98t146.5 -37q53 0 95 10t83 34.5t84 65.5t98 105l89 -53q-59 -70 -112.5 -120 t-110 -81t-119 -45t-138.5 -14q-209 0 -302 136q-55 81 -55 212q0 90 26 204zM336 627h618q5 42 5 80q0 111 -40 182q-53 96 -192 98q-82 0 -148.5 -36t-116.5 -90t-82 -117.5t-44 -116.5z" />
<glyph unicode="f" horiz-adv-x="569" d="M197 0l215 967h-176l20 98h176l35 152q31 139 105.5 210.5t211.5 71.5q35 0 67 -5t64 -11l-24 -103q-27 10 -54.5 15.5t-60.5 5.5q-74 0 -119 -39t-65 -131l-37 -166h217l-20 -98h-217l-216 -967h-122z" />
<glyph unicode="g" horiz-adv-x="1024" d="M12 -125q16 70 65.5 127t172.5 98v4q-55 12 -90 42q-25 21 -25 62q0 17 4 36q8 35 28.5 64.5t49.5 53t60.5 40t62.5 22.5q-61 49 -86 122q-14 41 -14 86q0 34 8 70q20 88 65 159t110.5 121t149.5 76.5t181 26.5q78 0 133 -19t100 -54q115 94 244 94l-25 -111 q-43 0 -92 -8t-90 -41q27 -43 36 -94q3 -17 3 -37q0 -40 -12 -92q-20 -98 -69.5 -169t-115 -116t-145.5 -66.5t-164 -21.5q-51 0 -89 9.5t-77 23.5q-53 -18 -82.5 -46t-38.5 -56q-4 -23 3.5 -40.5t39 -28.5t96 -17.5t171.5 -6.5q240 0 330 -72q68 -55 68 -142q0 -29 -7 -62 q-12 -59 -48 -111.5t-101.5 -91.5t-164 -62.5t-235.5 -23.5t-222 21.5t-130 56.5t-56 81q-7 25 -7 49q0 22 5 44zM141 -102q-4 -16 -4 -32q0 -56 53 -96q68 -49 236 -49q201 0 302 49.5t120 133.5q2 13 2 26q0 20 -5 38q-9 32 -46 56.5t-109.5 39t-193.5 14.5 q-90 0 -153.5 -15.5t-105.5 -40t-64.5 -57.5t-31.5 -67zM370 595q11 -50 41.5 -83t77 -48t103.5 -15q129 0 216 63t118 203q12 50 12 91q0 73 -38 116q-60 65 -189 65q-131 0 -220 -73.5t-118 -198.5q-8 -39 -8 -72q0 -26 5 -48z" />
<glyph unicode="h" d="M168 0l328 1479h122l-129 -582q106 90 197.5 139t208.5 49q168 0 222 -92q32 -54 31 -136q0 -58 -15 -130l-162 -727h-123l158 715q15 65 15 116q0 53 -16 87q-32 70 -155 69q-49 0 -93 -14.5t-88 -41t-93.5 -63.5t-110.5 -84l-174 -784h-123z" />
<glyph unicode="i" horiz-adv-x="454" d="M166 0l235 1065h123l-235 -1065h-123zM455 1298l39 181h122l-38 -181h-123z" />
<glyph unicode="j" horiz-adv-x="454" d="M-121 -365l21 101q20 -6 41.5 -10.5t42.5 -4.5q61 0 96 26t49 85l272 1233h123l-272 -1235q-27 -117 -93.5 -162t-172.5 -45q-27 0 -57.5 3t-49.5 9zM455 1298l39 181h122l-38 -181h-123z" />
<glyph unicode="k" horiz-adv-x="1024" d="M168 0l328 1479h122l-217 -979l619 565h141l-434 -397l252 -668h-137l-211 582l-264 -238l-76 -344h-123z" />
<glyph unicode="l" horiz-adv-x="454" d="M166 0l328 1479h122l-327 -1479h-123z" />
<glyph unicode="m" horiz-adv-x="1705" d="M168 0l235 1065h123l-34 -162q49 43 94 77t91 57.5t96 35.5t112 12q90 0 151.5 -52t63.5 -142q92 86 186 140t209 54q141 1 195 -73q34 -47 33 -121q0 -43 -11 -94l-176 -797h-123l180 809q6 30 6 54q-1 50 -25 80q-36 44 -126 44q-35 0 -84 -17.5t-99.5 -46t-97.5 -64.5 t-80 -75l-174 -784h-122l180 809q6 29 6 54q0 50 -25 80q-37 44 -127 44q-35 0 -84 -17.5t-99 -46t-97 -64.5t-80 -75l-174 -784h-123z" />
<glyph unicode="n" d="M168 0l235 1065h123l-37 -168q106 90 197.5 139t208.5 49q168 0 222 -92q32 -54 31 -136q0 -58 -15 -130l-162 -727h-123l158 715q15 65 15 116q0 53 -16 87q-32 70 -155 69q-49 0 -93 -14.5t-88 -41t-93.5 -63.5t-110.5 -84l-174 -784h-123z" />
<glyph unicode="o" horiz-adv-x="1024" d="M168 324.5q0 99.5 25 207.5q23 109 66.5 208.5t112 176t163 122.5t217.5 46q125 0 198 -46q74 -47 109 -123q34 -74 34 -170v-6q-1 -100 -24 -208q-25 -109 -69 -208t-111.5 -175.5t-161.5 -122.5t-219 -46t-198.5 46t-107.5 122.5t-34 176zM315 532q-24 -108 -24 -192 q1 -84 25 -144q50 -118 212 -118q166 0 267.5 118.5t150.5 335.5q23 107 23 191q0 85 -24 145q-48 119 -214 119t-267.5 -118.5t-148.5 -336.5z" />
<glyph unicode="p" d="M104 -377l320 1442h123l-35 -164h4q84 92 171 138t190 46q104 0 173.5 -46t106.5 -123.5t43 -177.5q1 -21 1 -41q0 -82 -19 -171q-31 -139 -84.5 -241.5t-124 -170t-155.5 -101t-177 -33.5q-109 0 -173.5 37.5t-125.5 121.5l-115 -516h-123zM371 268q10 -27 34.5 -59.5 t59.5 -62t77 -49t87 -19.5q168 0 276.5 124t157.5 347q17 80 17 155v8q-1 79 -25.5 140t-74.5 98t-130 37q-102 0 -184 -55t-179 -139z" />
<glyph unicode="q" d="M172 306q-2 24 -2 48q0 79 20 168q59 272 200.5 413.5t350.5 141.5q109 0 182.5 -43t125.5 -114l49 137h86l-318 -1434h-123l115 514q-96 -82 -178 -119.5t-191 -37.5q-94 0 -161.5 40.5t-107.5 113.5t-48 172zM296 356q1 -86 28.5 -147.5t82 -96t136.5 -34.5 q47 0 98 19.5t98 48t86 61.5t62 59l114 520q-41 84 -102 138.5t-174 54.5q-80 0 -146.5 -34t-117.5 -92t-87 -137t-57 -171q-22 -96 -22 -178q0 -5 1 -11z" />
<glyph unicode="r" horiz-adv-x="681" d="M160 0l235 1065h123l-45 -203h4q66 98 161 160.5t196 62.5h55l-25 -118h-55q-51 0 -112.5 -28t-118 -77t-101.5 -115.5t-61 -144.5l-133 -602h-123z" />
<glyph unicode="s" horiz-adv-x="909" d="M94 195l105 63q51 -106 117.5 -143t170.5 -37q51 0 98.5 15.5t85.5 43t64.5 64.5t34.5 80q6 25 6 47q0 44 -26 72q-38 42 -101 68t-140 44t-139 50q-64 32 -98 85q-22 34 -21 84q0 29 7 64q16 76 56 130t94.5 90t119 53t131.5 17q135 0 212 -50t114 -142l-108 -66 q-39 74 -92.5 117t-149.5 43q-90 0 -161 -44t-91 -142q-4 -18 -3 -34q0 -43 26 -67q38 -34 102.5 -58t141.5 -44t138.5 -56t95.5 -98q20 -35 20 -84q0 -36 -11 -79q-14 -72 -57 -128.5t-103.5 -94.5t-131.5 -58t-142 -20q-125 0 -219.5 51t-145.5 164z" />
<glyph unicode="t" horiz-adv-x="569" d="M217 166l178 801h-159l20 98h160l78 348h122l-77 -348h233l-20 -98h-234l-174 -781q-5 -20 -5 -37q0 -71 87 -71h2q33 0 66.5 6t64.5 16l-22 -102q-33 -4 -66 -11t-63 -7q-131 0 -172 44q-27 29 -27 80q0 28 8 62z" />
<glyph unicode="u" d="M244 338l159 727h123l-157 -715q-14 -65 -15 -115q0 -51 16 -87q30 -70 154 -70q49 0 93.5 14t88.5 41t94 65t109 83l174 784h123l-235 -1065h-123l37 168q-104 -88 -196.5 -138t-209.5 -50q-168 0 -221 92q-31 53 -31 133q0 59 17 133z" />
<glyph unicode="v" horiz-adv-x="909" d="M264 1065h131l97 -877h4l489 877h131l-602 -1065h-121z" />
<glyph unicode="w" horiz-adv-x="1366" d="M250 1065h125l45 -856h4l432 856h121l49 -856h4l428 856h127l-545 -1065h-120l-50 856h-4l-428 -856h-127z" />
<glyph unicode="x" horiz-adv-x="909" d="M20 0l486 565l-209 500h147l162 -385l330 385h147l-430 -500l236 -565h-148l-186 449l-387 -449h-148z" />
<glyph unicode="y" horiz-adv-x="909" d="M-47 -365l20 101q29 -4 56.5 -9.5t64.5 -5.5q63 0 143 66t162 229l-139 1049h135l103 -866h4l487 866h131l-649 -1141q-45 -78 -87 -135t-89 -94t-103.5 -54.5t-128.5 -17.5q-39 0 -65.5 3t-44.5 9z" />
<glyph unicode="z" horiz-adv-x="909" d="M51 0l17 78l813 889h-566l21 98h729l-16 -78l-811 -889h630l-22 -98h-795z" />
<glyph unicode="{" horiz-adv-x="681" d="M227 63l88 400q18 80 2 123t-88 43l17 73q72 0 106.5 43t53.5 123l88 400q25 111 85 171t146 60h127l-16 -74h-103q-39 0 -65.5 -24.5t-44.5 -110.5l-91 -403q-23 -102 -71.5 -152.5t-124.5 -66.5v-4q68 -16 94.5 -66.5t3.5 -153.5l-90 -403q-18 -86 -3 -110.5t56 -24.5 h103l-17 -74h-127q-86 0 -119.5 60.5t-9.5 170.5z" />
<glyph unicode="|" horiz-adv-x="454" d="M168 -20l336 1519h110l-335 -1519h-111z" />
<glyph unicode="}" horiz-adv-x="681" d="M125 -168l16 74h103q39 0 65.5 24.5t44.5 110.5l90 403q23 102 72 152.5t125 67.5v4q-68 16 -94.5 66t-3.5 153l90 403q18 86 3 110.5t-56 24.5h-103l17 74h127q88 0 120.5 -60.5t8.5 -170.5l-88 -400q-18 -80 -2 -123t88 -43l-17 -73q-72 0 -106.5 -43t-53.5 -123 l-88 -400q-25 -111 -85 -171t-146 -60h-127z" />
<glyph unicode="~" horiz-adv-x="1228" d="M213 485q23 31 54.5 62t70.5 55.5t86 39.5t102 15t113.5 -19.5t116.5 -45.5q57 -25 111.5 -47.5t101.5 -22.5q66 0 120 45t105 99l59 -86q-49 -63 -125.5 -117.5t-189.5 -54.5q-55 0 -113.5 19t-115.5 46q-55 25 -110.5 47.5t-100.5 22.5q-68 0 -122 -45t-106 -99z" />
<glyph unicode="&#xa1;" horiz-adv-x="454" d="M47 -414l264 1024h103l-191 -1024h-176zM334 881l41 184h176l-41 -184h-176z" />
<glyph unicode="&#xa2;" d="M227 -246l152 277q-106 66 -137 196.5t8 304.5q31 137 86 241t131 173.5t168 104t194 34.5q63 0 119 -16l119 219h111l-144 -262q102 -76 121 -229l-119 -31q-10 41 -24.5 79t-38.5 68l-451 -823q37 -12 84 -12q115 0 198 58.5t171 162.5l88 -47q-45 -57 -97.5 -106.5 t-111.5 -86t-125.5 -58t-142.5 -21.5q-68 0 -117 14l-131 -240h-111zM358.5 295q16.5 -102 79.5 -158l457 834q-39 16 -86 16q-76 0 -143.5 -24.5t-124 -79t-99.5 -141.5t-69 -210q-31 -135 -14.5 -237z" />
<glyph unicode="&#xa3;" d="M29 -20l28 126q72 29 127.5 77t96.5 107.5t67.5 126t42.5 134.5q6 35 10.5 68.5t8.5 66.5h-228l23 98h215q10 76 15 151t22 150q23 94 68.5 170t111 130.5t148.5 84t178 29.5q178 0 269 -101.5t85 -273.5l-125 -28q2 133 -53.5 213t-202.5 80q-150 0 -238 -85t-118 -225 q-16 -74 -22.5 -148.5t-10.5 -146.5h299l-23 -98h-286q-6 -27 -8.5 -53.5t-8.5 -54.5q-23 -100 -55.5 -176t-95.5 -169q33 -25 69.5 -49t77.5 -45.5t86 -35t90 -13.5q61 0 112.5 13.5t95.5 45t84 85t79 133.5l108 -25q-72 -174 -192.5 -268t-290.5 -94q-74 0 -130 13 t-101 34.5t-84 51.5t-80 60q-55 -59 -122 -102t-142 -57z" />
<glyph unicode="&#xa4;" d="M129 309l135 111q-43 68 -50 150.5t11 168.5t63.5 169t119.5 151l-86 110l94 78l90 -112q80 57 167 84.5t173 27.5t160.5 -27.5t130.5 -84.5l139 112l61 -78l-135 -110q43 -68 50.5 -151t-11.5 -169q-18 -86 -63 -169t-119 -150l86 -111l-94 -78l-90 113 q-80 -57 -167 -85t-173 -28t-161 28t-130 85l-140 -113zM332 582.5q14 -74.5 56 -131t107.5 -89t147.5 -32.5t162 32.5t145.5 89t113.5 131t66 156.5q18 84 4 158t-56 130t-107.5 89t-147.5 33t-161.5 -33t-145 -89t-114 -130t-66.5 -158q-18 -82 -4 -156.5z" />
<glyph unicode="&#xa5;" d="M246 504l20 98h361l6 25l-51 176h-271l23 98h221l-170 578h135l203 -731l551 731h135l-434 -578h215l-23 -98h-266l-133 -176l-6 -25h360l-20 -98h-361l-112 -504h-135l112 504h-360z" />
<glyph unicode="&#xa6;" horiz-adv-x="454" d="M168 -20l127 573h111l-127 -573h-111zM377 926l127 573h110l-127 -573h-110z" />
<glyph unicode="&#xa7;" horiz-adv-x="1024" d="M182 27l99 55q12 -66 59 -111t121 -45q86 0 142 37t73 115q10 47 -16.5 102.5t-71.5 116.5t-100.5 126.5t-99.5 132.5t-69.5 131.5t-11.5 123.5q10 49 38 88t67 65.5t85 41t95 14.5l6 4q-43 37 -68.5 96.5t-7.5 141.5q23 104 112 170.5t210 66.5q106 0 171.5 -53 t90.5 -148l-94 -51q-20 74 -65.5 118t-131.5 44q-70 0 -123 -39t-71 -125q-10 -43 18.5 -93t74.5 -105.5t101 -115t100.5 -123t70 -128t9.5 -127.5q-29 -125 -103.5 -174t-170.5 -55q35 -55 53.5 -121t1.5 -140q-14 -59 -48 -102t-80 -70.5t-100 -41t-110 -13.5 q-94 0 -165.5 52.5t-90.5 138.5zM414 831q-8 -41 24.5 -115.5t83.5 -147t106.5 -126t88.5 -53.5q66 0 111.5 41t60.5 102q6 35 -24.5 106t-80 141.5t-107 122.5t-102.5 52q-23 0 -48 -9t-48.5 -24.5t-41 -38t-23.5 -51.5z" />
<glyph unicode="&#xa8;" horiz-adv-x="454" d="M266 1204l43 193h135l-43 -193h-135zM586 1204l43 193h135l-43 -193h-135z" />
<glyph unicode="&#xa9;" horiz-adv-x="1638" d="M217 444.5q-29 139.5 6 294.5q35 158 125 296.5t216 240.5t277.5 162.5t309.5 60.5t283 -60.5t205.5 -162.5t109.5 -240.5t-6 -296.5q-35 -156 -125 -295t-216 -241.5t-277.5 -162.5t-309.5 -60t-282.5 60t-205.5 162.5t-110 242zM336.5 482q21.5 -120 87 -209 t171.5 -140t243 -51t265 51t232.5 140t179 209t105.5 257t9.5 257t-87 209t-171 140.5t-243.5 51.5q-137 0 -265 -51.5t-232.5 -140.5t-179 -208.5t-105.5 -257.5q-31 -137 -9.5 -257zM535.5 551q-13.5 88 9.5 190t74 190.5t123.5 153t164.5 100.5t199 36q76 0 137.5 -20.5 t104.5 -61.5t63.5 -99.5t13.5 -136.5h-110q0 90 -58.5 152.5t-171.5 62.5q-80 0 -148.5 -29.5t-122.5 -80t-91 -119t-55 -146.5q-16 -74 -7 -143.5t40.5 -122.5t87 -85t133.5 -32q111 0 196.5 66t124.5 158h111q-33 -72 -81 -132.5t-107.5 -103.5t-127 -66.5t-139.5 -23.5 q-104 0 -182 37t-123 102.5t-58.5 153.5z" />
<glyph unicode="&#xaa;" horiz-adv-x="614" d="M248 1006q18 80 74.5 127t128 73.5t146.5 41t128 28.5l12 51q8 41 -14.5 65.5t-97.5 24.5q-66 0 -115 -24.5t-96 -75.5l-58 41q63 76 132 108.5t165 32.5q119 0 161 -46t20 -150l-72 -320q-10 -47 -12 -72.5t-5 -58.5h-90l9 78q-66 -47 -123.5 -68.5t-137.5 -21.5 q-82 0 -128 44t-27 122zM350 1008q-8 -37 13.5 -61.5t70.5 -24.5q57 0 124 26.5t110 67.5l39 172q-37 -10 -93.5 -22.5t-112 -32t-98.5 -49t-53 -76.5z" />
<glyph unicode="&#xab;" horiz-adv-x="1024" d="M287 537l317 311h135l-323 -311l182 -320h-135zM590 537l319 311h135l-325 -311l184 -320h-135z" />
<glyph unicode="&#xac;" horiz-adv-x="1228" d="M233 682l25 111h1065l-117 -521h-110l92 410h-955z" />
<glyph unicode="&#xad;" horiz-adv-x="681" d="M193 477l24 111h510l-25 -111h-509z" />
<glyph unicode="&#xae;" horiz-adv-x="1638" d="M217 444.5q-29 139.5 6 294.5q35 158 125 296.5t216 240.5t277.5 162.5t309.5 60.5t283 -60.5t205.5 -162.5t109.5 -240.5t-6 -296.5q-35 -156 -125 -295t-216 -241.5t-277.5 -162.5t-309.5 -60t-282.5 60t-205.5 162.5t-110 242zM336.5 482q21.5 -120 87 -209 t171.5 -140t243 -51t265 51t232.5 140t179 209t105.5 257t9.5 257t-87 209t-171 140.5t-243.5 51.5q-137 0 -265 -51.5t-232.5 -140.5t-179 -208.5t-105.5 -257.5q-31 -137 -9.5 -257zM600 287l201 903h346q154 0 209 -63.5t28 -186.5q-14 -59 -41.5 -103t-63.5 -74 t-77 -48.5t-84 -26.5l164 -401h-139l-158 401h-174l-88 -401h-123zM836 791h141q43 0 89 1t85 15t68.5 45t42.5 90q10 47 -1.5 76t-36 44t-58 20t-68.5 5h-197z" />
<glyph unicode="&#xaf;" horiz-adv-x="454" d="M205 1264l20 90h606l-20 -90h-606z" />
<glyph unicode="&#xb0;" horiz-adv-x="819" d="M373.5 1083.5q-11.5 55.5 3.5 116.5q14 61 49 116.5t84 95.5t109.5 63.5t121.5 23.5q63 0 112.5 -23.5t81.5 -63.5t43 -95t-3 -117q-14 -61 -49 -116.5t-84 -95.5t-109.5 -63.5t-122.5 -23.5q-63 0 -112 23.5t-81 63.5t-43.5 95.5zM471 1200q-20 -92 23 -152.5t135 -60.5 q90 0 160.5 60.5t91.5 152.5q20 92 -24 152.5t-134 60.5q-92 0 -161.5 -60.5t-90.5 -152.5z" />
<glyph unicode="&#xb1;" horiz-adv-x="1228" d="M82 0l24 111h1065l-24 -111h-1065zM209 575l24 111h478l84 379h110l-84 -379h477l-24 -111h-477l-84 -378h-111l84 378h-477z" />
<glyph unicode="&#xb2;" horiz-adv-x="681" d="M166 598l14 68q6 27 19.5 53t47.5 60t93 77t158 102q92 53 150.5 92.5t93 72t50 60t21.5 58.5q18 76 -17.5 122t-111.5 46q-92 0 -159.5 -43t-110.5 -135l-90 14q49 121 148 187.5t226 66.5t187.5 -69.5t32.5 -196.5q-12 -63 -49.5 -109.5t-86.5 -84.5t-106.5 -71.5 t-116.5 -70.5q-129 -84 -192.5 -128t-75.5 -81h504l-19 -90h-610z" />
<glyph unicode="&#xb3;" horiz-adv-x="681" d="M172 762l96 49q25 -78 72 -106.5t141 -28.5q109 0 174.5 46t83.5 124q20 94 -39 136t-180 42h-88l21 90h71q115 0 187.5 37t91.5 123q14 66 -30 100.5t-114 34.5q-41 0 -71.5 -4t-59 -15.5t-55.5 -31t-59 -51.5l-62 47q76 82 152 113.5t166 31.5q53 0 102 -13t84 -40 t51.5 -68t3.5 -96q-18 -78 -54 -126t-128 -83q74 -29 105.5 -81t11.5 -144q-31 -139 -138.5 -200.5t-250.5 -61.5q-117 0 -189.5 43t-95.5 133z" />
<glyph unicode="&#xb4;" horiz-adv-x="454" d="M360 1184l291 282h158l-344 -282h-105z" />
<glyph unicode="&#xb5;" d="M84 -377l319 1442h123l-157 -715q-29 -133 1.5 -202.5t153.5 -69.5q49 0 93.5 14t88.5 41t94 65t109 83l174 784h123l-235 -1065h-123l37 168q-104 -88 -196.5 -138t-209.5 -50q-123 0 -182 49l-90 -406h-123z" />
<glyph unicode="&#xb6;" horiz-adv-x="1024" d="M271.5 926.5q-17.5 70.5 0.5 150.5q43 195 185.5 298.5t359.5 103.5h539l-21 -90h-151l-344 -1553h-103l344 1553h-215l-344 -1553h-102l188 852q-88 0 -158.5 31t-115.5 84t-62.5 123.5z" />
<glyph unicode="&#xb7;" horiz-adv-x="569" d="M301 532q8 43 46 73t79 30q39 0 63.5 -30t16.5 -73q-10 -43 -48 -72.5t-77 -29.5q-41 0 -65.5 29.5t-14.5 72.5z" />
<glyph unicode="&#xb8;" horiz-adv-x="454" d="M-86 -385l45 74q23 -10 55.5 -21.5t59.5 -11.5q135 0 153 84q10 43 -14.5 63.5t-58.5 20.5q-25 0 -50.5 -5t-44.5 -14l-24 27l160 168h77l-110 -102l2 -4q12 4 29.5 8t37.5 4q74 0 107 -46t14 -126q-8 -41 -35.5 -71t-64.5 -50.5t-77 -29.5t-73 -9q-51 0 -99 9t-89 32z " />
<glyph unicode="&#xb9;" horiz-adv-x="681" d="M283 598l18 90h150l157 709l-176 -41l17 76l204 67h84l-180 -811h158l-19 -90h-413z" />
<glyph unicode="&#xba;" horiz-adv-x="614" d="M267 1045.5q-1 60.5 14 123.5q14 66 40.5 125.5t70.5 104.5t105.5 72.5t141.5 27.5q82 0 130 -27.5t71.5 -72.5t24.5 -104.5t-13 -125.5q-14 -63 -42 -123.5t-72 -105.5t-104.5 -72.5t-139.5 -27.5q-82 0 -131.5 27.5t-72 72.5t-23.5 105.5zM392 993q24 -59 122 -59 t147.5 59.5t75.5 175.5q25 115 2.5 175.5t-121.5 60.5q-98 0 -148 -60.5t-75 -175.5q-27 -117 -3 -176z" />
<glyph unicode="&#xbb;" horiz-adv-x="1024" d="M215 217l326 311l-185 320h136l178 -320l-320 -311h-135zM520 217l324 311l-182 320h135l176 -320l-318 -311h-135z" />
<glyph unicode="&#xbc;" horiz-adv-x="1708" d="M332 598l18 90h150l157 709l-176 -41l17 76l204 67h84l-180 -811h158l-19 -90h-413zM367 -20l1245 1519h117l-1242 -1519h-120zM993 213l23 98l528 578h137l-129 -586h146l-21 -90h-145l-47 -213h-107l47 213h-432zM1128 303h318l102 463h-8z" />
<glyph unicode="&#xbd;" horiz-adv-x="1708" d="M332 598l18 90h150l157 709l-176 -41l17 76l204 67h84l-180 -811h158l-19 -90h-413zM342 -20l1245 1519h117l-1241 -1519h-121zM1008 0l14 68q6 27 19.5 53t47 60t93 77t157.5 102q92 53 150.5 92.5t93.5 72t50.5 60t23.5 58.5q16 76 -18.5 122t-112.5 46q-92 0 -160 -43 t-109 -135l-92 14q49 121 148.5 187.5t228.5 66.5q125 0 185.5 -69.5t33.5 -196.5q-14 -63 -50 -109.5t-85 -84.5t-107.5 -71.5t-117.5 -70.5q-129 -84 -192.5 -128t-73.5 -81h503l-20 -90h-610z" />
<glyph unicode="&#xbe;" horiz-adv-x="1708" d="M229 762l97 49q25 -78 71.5 -106.5t141.5 -28.5q109 0 174 46t84 124q20 94 -39.5 136t-179.5 42h-89l21 90h72q115 0 187.5 37t90.5 123q14 66 -30 100.5t-113 34.5q-41 0 -72 -4t-59.5 -15.5t-55 -31t-59.5 -51.5l-61 47q76 82 151.5 113.5t165.5 31.5q53 0 102.5 -13 t84 -40t51 -68t4.5 -96q-18 -78 -54 -126t-129 -83q74 -29 106 -81t11 -144q-31 -139 -138.5 -200.5t-250.5 -61.5q-117 0 -189.5 43t-95.5 133zM399 -20l1246 1519h116l-1241 -1519h-121zM993 213l23 98l528 578h137l-129 -586h146l-21 -90h-145l-47 -213h-107l47 213h-432 zM1128 303h318l102 463h-8z" />
<glyph unicode="&#xbf;" horiz-adv-x="796" d="M34.5 -244.5q-14.5 62.5 4.5 144.5q23 102 93.5 176t150 139.5t150.5 136t91 164.5l23 98h110l-32 -147q-18 -80 -84 -146.5t-141.5 -134t-142.5 -143.5t-89 -170q-20 -96 28 -146.5t134 -50.5q51 0 93 18.5t75.5 46.5t60.5 62.5t47 65.5l90 -51q-66 -115 -164 -183.5 t-229 -68.5q-66 0 -122 21.5t-94 63.5t-52.5 104.5zM578 881l40 184h177l-41 -184h-176z" />
<glyph unicode="&#xc0;" horiz-adv-x="1251" d="M51 0l1129 1479h207l-189 -1479h-143l64 483h-559l-365 -483h-144zM644 594h494l97 774h-4zM1095 1833h158l100 -282h-104z" />
<glyph unicode="&#xc1;" horiz-adv-x="1251" d="M51 0l1129 1479h207l-189 -1479h-143l64 483h-559l-365 -483h-144zM644 594h494l97 774h-4zM1095 1551l354 282h158l-407 -282h-105z" />
<glyph unicode="&#xc2;" horiz-adv-x="1251" d="M51 0l1129 1479h207l-189 -1479h-143l64 483h-559l-365 -483h-144zM644 594h494l97 774h-4zM921 1551l360 282h140l107 -282h-136l-74 207l-261 -207h-136z" />
<glyph unicode="&#xc3;" horiz-adv-x="1251" d="M51 0l1129 1479h207l-189 -1479h-143l64 483h-559l-365 -483h-144zM644 594h494l97 774h-4zM914 1573q18 35 47.5 71t66 64.5t75.5 46t78 17.5t71 -14.5t61 -30.5q32 -16 60.5 -30.5t61.5 -14.5q43 0 78 31.5t58 68.5h78q-23 -39 -51.5 -74.5t-61 -63.5t-72 -44 t-84.5 -16q-33 0 -64.5 15t-62.5 32q-31 16 -61 30.5t-58 14.5q-45 0 -82 -32t-60 -71h-78z" />
<glyph unicode="&#xc4;" horiz-adv-x="1251" d="M51 0l1129 1479h207l-189 -1479h-143l64 483h-559l-365 -483h-144zM644 594h494l97 774h-4zM1006 1571l86 193h135l-86 -193h-135zM1326 1571l86 193h135l-86 -193h-135z" />
<glyph unicode="&#xc5;" horiz-adv-x="1251" d="M51 0l1129 1479h207l-189 -1479h-143l64 483h-559l-365 -483h-144zM644 594h494l97 774h-4zM1104 1602q-35 59 3 145q19 43 52 81t74 65.5t84.5 43t86.5 15.5q82 0 117 -59.5t-5 -145.5q-18 -43 -50.5 -79.5t-73.5 -64.5t-84.5 -44t-86.5 -16q-82 0 -117 59zM1174.5 1651 q23.5 -39 78.5 -39t111.5 39t82.5 96q27 57 3.5 96.5t-78.5 39.5t-111.5 -39t-84.5 -97q-25 -57 -1.5 -96z" />
<glyph unicode="&#xc6;" horiz-adv-x="1933" d="M37 0l1151 1479h952l-24 -111h-697l-121 -545h498l-24 -110h-498l-133 -602h735l-25 -111h-870l106 483h-534l-365 -483h-151zM643 594h469l172 770h-35z" />
<glyph unicode="&#xc7;" horiz-adv-x="1251" d="M243 -385l61 74q21 -10 51 -21.5t57 -11.5q135 0 171 84q20 43 0 63.5t-54 20.5q-25 0 -51.5 -5t-47.5 -14l-18 27l197 168h77l-133 -102l2 -4q12 4 30.5 8t38.5 4q74 0 97 -46t-14 -126q-17 -41 -51 -71t-75.5 -50.5t-83.5 -29.5t-75 -9q-51 0 -97 9t-82 32zM326.5 428 q22.5 139 99.5 311t177.5 311.5t218 240t247 154.5t262.5 54q100 0 163 -32.5t95 -90t37 -136.5t-11 -169l-137 -27q25 164 -23.5 254.5t-183.5 90.5q-109 0 -211 -50.5t-192.5 -138.5t-168 -207t-138.5 -254t-88 -253.5t-13 -207t74.5 -138.5t175.5 -50q88 0 164.5 30 t140.5 79t120.5 114.5t107.5 137.5l116 -23q-65 -98 -139 -181t-159.5 -142.5t-186 -92t-214.5 -32.5q-135 0 -216.5 54t-110.5 154.5t-6.5 239.5z" />
<glyph unicode="&#xc8;" d="M205 0l655 1479h844l-49 -111h-709l-242 -545h510l-48 -110h-510l-266 -602h747l-50 -111h-882zM1105 1833h158l100 -282h-104z" />
<glyph unicode="&#xc9;" d="M205 0l655 1479h844l-49 -111h-709l-242 -545h510l-48 -110h-510l-266 -602h747l-50 -111h-882zM1105 1551l354 282h158l-407 -282h-105z" />
<glyph unicode="&#xca;" d="M205 0l655 1479h844l-49 -111h-709l-242 -545h510l-48 -110h-510l-266 -602h747l-50 -111h-882zM931 1551l360 282h140l107 -282h-136l-74 207l-261 -207h-136z" />
<glyph unicode="&#xcb;" d="M205 0l655 1479h844l-49 -111h-709l-242 -545h510l-48 -110h-510l-266 -602h747l-50 -111h-882zM1016 1571l86 193h135l-86 -193h-135zM1336 1571l86 193h135l-86 -193h-135z" />
<glyph unicode="&#xcc;" horiz-adv-x="569" d="M217 0l656 1479h135l-656 -1479h-135zM745 1833h158l100 -282h-104z" />
<glyph unicode="&#xcd;" horiz-adv-x="569" d="M217 0l656 1479h135l-656 -1479h-135zM745 1551l354 282h158l-407 -282h-105z" />
<glyph unicode="&#xce;" horiz-adv-x="569" d="M217 0l656 1479h135l-656 -1479h-135zM571 1551l360 282h140l107 -282h-136l-74 207l-261 -207h-136z" />
<glyph unicode="&#xcf;" horiz-adv-x="569" d="M217 0l656 1479h135l-656 -1479h-135zM656 1571l86 193h135l-86 -193h-135zM976 1571l86 193h135l-86 -193h-135z" />
<glyph unicode="&#xd0;" horiz-adv-x="1366" d="M178 713l25 110h184l145 656h418q172 0 280.5 -60.5t164 -162t61.5 -235.5t-26 -282q-33 -147 -98.5 -281t-166 -235.5t-235.5 -162t-307 -60.5h-418l157 713h-184zM365 111h286q248 0 412 163.5t231 464.5q68 301 -24 465t-340 164h-287l-121 -545h402l-25 -110h-401z " />
<glyph unicode="&#xd1;" horiz-adv-x="1478" d="M205 0l655 1479h228l157 -1233h4l545 1233h136l-656 -1479h-139l-185 1368h-4l-606 -1368h-135zM1033 1573q18 35 47.5 71t66 64.5t75.5 46t78 17.5t71 -14.5t61 -30.5q32 -16 60.5 -30.5t61.5 -14.5q43 0 78 31.5t58 68.5h78q-23 -39 -51.5 -74.5t-61 -63.5t-72 -44 t-84.5 -16q-33 0 -64.5 15t-62.5 32q-31 16 -61 30.5t-58 14.5q-45 0 -82 -32t-60 -71h-78z" />
<glyph unicode="&#xd2;" horiz-adv-x="1366" d="M330 436q22 139 96 303q73 164 173.5 303.5t220.5 240.5t253.5 158.5t272.5 57.5t223 -57.5t113.5 -158.5t6.5 -240.5t-95 -303.5q-74 -164 -174.5 -303t-220 -240.5t-253 -158.5t-272.5 -57t-223 57t-113.5 158.5t-7.5 240.5zM468 258q47 -168 254 -168q205 0 401 168 t335 481t92.5 481.5t-253.5 168.5q-205 0 -401 -168t-335 -482q-140 -313 -93 -481zM1159 1833h158l100 -282h-104z" />
<glyph unicode="&#xd3;" horiz-adv-x="1366" d="M330 436q22 139 96 303q73 164 173.5 303.5t220.5 240.5t253.5 158.5t272.5 57.5t223 -57.5t113.5 -158.5t6.5 -240.5t-95 -303.5q-74 -164 -174.5 -303t-220 -240.5t-253 -158.5t-272.5 -57t-223 57t-113.5 158.5t-7.5 240.5zM468 258q47 -168 254 -168q205 0 401 168 t335 481t92.5 481.5t-253.5 168.5q-205 0 -401 -168t-335 -482q-140 -313 -93 -481zM1159 1551l354 282h158l-407 -282h-105z" />
<glyph unicode="&#xd4;" horiz-adv-x="1366" d="M330 436q22 139 96 303q73 164 173.5 303.5t220.5 240.5t253.5 158.5t272.5 57.5t223 -57.5t113.5 -158.5t6.5 -240.5t-95 -303.5q-74 -164 -174.5 -303t-220 -240.5t-253 -158.5t-272.5 -57t-223 57t-113.5 158.5t-7.5 240.5zM468 258q47 -168 254 -168q205 0 401 168 t335 481t92.5 481.5t-253.5 168.5q-205 0 -401 -168t-335 -482q-140 -313 -93 -481zM985 1551l360 282h140l107 -282h-136l-74 207l-261 -207h-136z" />
<glyph unicode="&#xd5;" horiz-adv-x="1366" d="M330 436q22 139 96 303q73 164 173.5 303.5t220.5 240.5t253.5 158.5t272.5 57.5t223 -57.5t113.5 -158.5t6.5 -240.5t-95 -303.5q-74 -164 -174.5 -303t-220 -240.5t-253 -158.5t-272.5 -57t-223 57t-113.5 158.5t-7.5 240.5zM468 258q47 -168 254 -168q205 0 401 168 t335 481t92.5 481.5t-253.5 168.5q-205 0 -401 -168t-335 -482q-140 -313 -93 -481zM978 1573q18 35 47.5 71t66 64.5t75.5 46t78 17.5t71 -14.5t61 -30.5q32 -16 60.5 -30.5t61.5 -14.5q43 0 78 31.5t58 68.5h78q-23 -39 -51.5 -74.5t-61 -63.5t-72 -44t-84.5 -16 q-33 0 -64.5 15t-62.5 32q-31 16 -61 30.5t-58 14.5q-45 0 -82 -32t-60 -71h-78z" />
<glyph unicode="&#xd6;" horiz-adv-x="1366" d="M330 436q22 139 96 303q73 164 173.5 303.5t220.5 240.5t253.5 158.5t272.5 57.5t223 -57.5t113.5 -158.5t6.5 -240.5t-95 -303.5q-74 -164 -174.5 -303t-220 -240.5t-253 -158.5t-272.5 -57t-223 57t-113.5 158.5t-7.5 240.5zM468 258q47 -168 254 -168q205 0 401 168 t335 481t92.5 481.5t-253.5 168.5q-205 0 -401 -168t-335 -482q-140 -313 -93 -481zM1070 1571l86 193h135l-86 -193h-135zM1390 1571l86 193h135l-86 -193h-135z" />
<glyph unicode="&#xd7;" horiz-adv-x="1228" d="M98 78l557 454l-354 455l94 78l355 -455l555 455l61 -78l-555 -455l352 -454l-94 -78l-354 455l-555 -455z" />
<glyph unicode="&#xd8;" horiz-adv-x="1366" d="M61 -98l242 280q-59 104 -68.5 246.5t27.5 310.5q37 164 106.5 303.5t167 240.5t218 158.5t260.5 57.5q104 0 183 -31.5t134 -91.5l172 201h129l-243 -281q59 -100 69 -242.5t-28 -314.5q-37 -164 -107 -303t-167 -240.5t-218 -158.5t-260 -57q-104 0 -182 31.5 t-134 88.5l-172 -198h-129zM397 739q-61 -279 2 -444l844 979q-84 115 -254 115q-205 0 -363.5 -168t-228.5 -482zM451 203q82 -113 251 -113q205 0 364 168t228 481q63 283 -2 443z" />
<glyph unicode="&#xd9;" horiz-adv-x="1478" d="M418 483l442 996h136l-448 -1008q-93 -211 -29 -296t261 -85t335.5 85t231.5 296l447 1008h136l-443 -996q-223 -504 -756 -503q-535 0 -313 503zM1204 1833h158l100 -282h-104z" />
<glyph unicode="&#xda;" horiz-adv-x="1478" d="M418 483l442 996h136l-448 -1008q-93 -211 -29 -296t261 -85t335.5 85t231.5 296l447 1008h136l-443 -996q-223 -504 -756 -503q-535 0 -313 503zM1204 1551l354 282h158l-407 -282h-105z" />
<glyph unicode="&#xdb;" horiz-adv-x="1478" d="M418 483l442 996h136l-448 -1008q-93 -211 -29 -296t261 -85t335.5 85t231.5 296l447 1008h136l-443 -996q-223 -504 -756 -503q-535 0 -313 503zM1030 1551l360 282h140l107 -282h-136l-74 207l-261 -207h-136z" />
<glyph unicode="&#xdc;" horiz-adv-x="1478" d="M418 483l442 996h136l-448 -1008q-93 -211 -29 -296t261 -85t335.5 85t231.5 296l447 1008h136l-443 -996q-223 -504 -756 -503q-535 0 -313 503zM1115 1571l86 193h135l-86 -193h-135zM1435 1571l86 193h135l-86 -193h-135z" />
<glyph unicode="&#xdd;" d="M494 0l278 627l-75 852h151l41 -731l713 731h151l-846 -852l-278 -627h-135zM1044 1551l354 282h158l-407 -282h-105z" />
<glyph unicode="&#xde;" horiz-adv-x="1251" d="M205 0l327 1479h136l-68 -308h311q131 0 219.5 -29.5t137.5 -82.5t60 -130t-9 -169q-41 -186 -183.5 -299t-406.5 -113h-311l-78 -348h-135zM442 459h312q193 0 295 76.5t135 224.5q33 147 -36 224t-261 77h-312z" />
<glyph unicode="&#xdf;" horiz-adv-x="1024" d="M156 0l241 1092q39 174 152 280.5t295 106.5q78 0 137 -28t94 -77t46.5 -115.5t-5.5 -144.5q-23 -102 -89 -182t-169 -125q131 -43 178 -146.5t17 -248.5q-45 -199 -161 -315.5t-286 -116.5q-43 0 -94 12t-84 35l64 92q29 -16 66.5 -28.5t74.5 -12.5q106 0 183 86 t110 233q41 186 -37 263t-260 77l20 99q135 4 223.5 67.5t120.5 214.5q27 123 -18 192.5t-172 69.5q-63 0 -111.5 -24.5t-82.5 -64.5t-55.5 -91t-31.5 -102l-243 -1098h-123z" />
<glyph unicode="&#xe0;" horiz-adv-x="1024" d="M161.5 52.5q-51.5 72.5 6.5 205.5q49 109 123.5 178.5t181 115.5t248 79t325.5 69l33 74q46 106 17 159.5t-166 53.5q-96 0 -195.5 -50t-200.5 -142l-60 49q127 129 250 185t252 56q184 0 236.5 -77.5t-27.5 -255.5l-247 -557q-17 -41 -36.5 -91.5t-33.5 -103.5h-118 l41 129q-64 -37 -120.5 -65.5t-109.5 -47t-107.5 -27.5t-115.5 -9q-125 0 -176.5 72.5zM285.5 125q32.5 -47 114.5 -47q88 0 206 47t234 129l155 348q-198 -39 -326 -79t-203.5 -81t-113 -86t-61.5 -96q-38 -88 -5.5 -135zM907 1466h158l100 -282h-104z" />
<glyph unicode="&#xe1;" horiz-adv-x="1024" d="M161.5 52.5q-51.5 72.5 6.5 205.5q49 109 123.5 178.5t181 115.5t248 79t325.5 69l33 74q46 106 17 159.5t-166 53.5q-96 0 -195.5 -50t-200.5 -142l-60 49q127 129 250 185t252 56q184 0 236.5 -77.5t-27.5 -255.5l-247 -557q-17 -41 -36.5 -91.5t-33.5 -103.5h-118 l41 129q-64 -37 -120.5 -65.5t-109.5 -47t-107.5 -27.5t-115.5 -9q-125 0 -176.5 72.5zM285.5 125q32.5 -47 114.5 -47q88 0 206 47t234 129l155 348q-198 -39 -326 -79t-203.5 -81t-113 -86t-61.5 -96q-38 -88 -5.5 -135zM907 1184l354 282h158l-407 -282h-105z" />
<glyph unicode="&#xe2;" horiz-adv-x="1024" d="M161.5 52.5q-51.5 72.5 6.5 205.5q49 109 123.5 178.5t181 115.5t248 79t325.5 69l33 74q46 106 17 159.5t-166 53.5q-96 0 -195.5 -50t-200.5 -142l-60 49q127 129 250 185t252 56q184 0 236.5 -77.5t-27.5 -255.5l-247 -557q-17 -41 -36.5 -91.5t-33.5 -103.5h-118 l41 129q-64 -37 -120.5 -65.5t-109.5 -47t-107.5 -27.5t-115.5 -9q-125 0 -176.5 72.5zM285.5 125q32.5 -47 114.5 -47q88 0 206 47t234 129l155 348q-198 -39 -326 -79t-203.5 -81t-113 -86t-61.5 -96q-38 -88 -5.5 -135zM733 1184l360 282h140l107 -282h-136l-74 207 l-261 -207h-136z" />
<glyph unicode="&#xe3;" horiz-adv-x="1024" d="M161.5 52.5q-51.5 72.5 6.5 205.5q49 109 123.5 178.5t181 115.5t248 79t325.5 69l33 74q46 106 17 159.5t-166 53.5q-96 0 -195.5 -50t-200.5 -142l-60 49q127 129 250 185t252 56q184 0 236.5 -77.5t-27.5 -255.5l-247 -557q-17 -41 -36.5 -91.5t-33.5 -103.5h-118 l41 129q-64 -37 -120.5 -65.5t-109.5 -47t-107.5 -27.5t-115.5 -9q-125 0 -176.5 72.5zM285.5 125q32.5 -47 114.5 -47q88 0 206 47t234 129l155 348q-198 -39 -326 -79t-203.5 -81t-113 -86t-61.5 -96q-38 -88 -5.5 -135zM726 1206q18 35 47.5 71t66 64.5t75.5 46t78 17.5 t71 -14.5t61 -30.5q32 -16 60.5 -30.5t61.5 -14.5q43 0 78 31.5t58 68.5h78q-23 -39 -51.5 -74.5t-61 -63.5t-72 -44t-84.5 -16q-33 0 -64.5 15t-62.5 32q-31 16 -61 30.5t-58 14.5q-45 0 -82 -32t-60 -71h-78z" />
<glyph unicode="&#xe4;" horiz-adv-x="1024" d="M161.5 52.5q-51.5 72.5 6.5 205.5q49 109 123.5 178.5t181 115.5t248 79t325.5 69l33 74q46 106 17 159.5t-166 53.5q-96 0 -195.5 -50t-200.5 -142l-60 49q127 129 250 185t252 56q184 0 236.5 -77.5t-27.5 -255.5l-247 -557q-17 -41 -36.5 -91.5t-33.5 -103.5h-118 l41 129q-64 -37 -120.5 -65.5t-109.5 -47t-107.5 -27.5t-115.5 -9q-125 0 -176.5 72.5zM285.5 125q32.5 -47 114.5 -47q88 0 206 47t234 129l155 348q-198 -39 -326 -79t-203.5 -81t-113 -86t-61.5 -96q-38 -88 -5.5 -135zM818 1204l86 193h135l-86 -193h-135zM1138 1204 l86 193h135l-86 -193h-135z" />
<glyph unicode="&#xe5;" horiz-adv-x="1024" d="M161.5 52.5q-51.5 72.5 6.5 205.5q49 109 123.5 178.5t181 115.5t248 79t325.5 69l33 74q46 106 17 159.5t-166 53.5q-96 0 -195.5 -50t-200.5 -142l-60 49q127 129 250 185t252 56q184 0 236.5 -77.5t-27.5 -255.5l-247 -557q-17 -41 -36.5 -91.5t-33.5 -103.5h-118 l41 129q-64 -37 -120.5 -65.5t-109.5 -47t-107.5 -27.5t-115.5 -9q-125 0 -176.5 72.5zM285.5 125q32.5 -47 114.5 -47q88 0 206 47t234 129l155 348q-198 -39 -326 -79t-203.5 -81t-113 -86t-61.5 -96q-38 -88 -5.5 -135zM916 1235q-35 59 3 145q19 43 52 81t74 65.5 t84.5 43t86.5 15.5q82 0 117 -59.5t-5 -145.5q-18 -43 -50.5 -79.5t-73.5 -64.5t-84.5 -44t-86.5 -16q-82 0 -117 59zM986.5 1284q23.5 -39 78.5 -39t111.5 39t82.5 96q27 57 3.5 96.5t-78.5 39.5t-111.5 -39t-84.5 -97q-25 -57 -1.5 -96z" />
<glyph unicode="&#xe6;" horiz-adv-x="1593" d="M111 258q25 109 83 178.5t150 115.5t218 79t286 69l16 74q8 41 5 79t-23.5 67.5t-59 48t-100.5 18.5q-113 0 -189.5 -50t-134.5 -146l-79 53q84 129 185 185t230 56q49 0 95.5 -8t84 -27.5t66.5 -53t41 -85.5q160 174 361 174q109 0 176 -40.5t99 -114.5t32 -176.5 t-29 -225.5h-692q-20 -90 -22.5 -172t18 -143t68.5 -98t128 -37q53 0 95.5 10t83 34.5t84 65.5t98.5 105l88 -53q-59 -70 -112.5 -120t-110 -81t-119 -45t-137.5 -14q-109 0 -183.5 48t-117.5 132q-111 -106 -222.5 -143t-228.5 -37q-125 0 -192.5 72.5t-38.5 205.5z M233 260q-18 -88 25 -135t125 -47q43 0 92 12t98.5 34.5t94.5 55.5t80 74l77 348q-178 -39 -288.5 -79t-174 -81t-90 -86t-39.5 -96zM954 627h570q18 164 -25 262t-178 98q-70 0 -128 -28.5t-104.5 -78t-80 -115t-54.5 -138.5z" />
<glyph unicode="&#xe7;" horiz-adv-x="1024" d="M114 -385l61 74q21 -10 51 -21.5t57 -11.5q135 0 171 84q20 43 0 63.5t-54 20.5q-25 0 -51.5 -5t-47.5 -14l-18 27l197 168h77l-133 -102l2 -4q12 4 30.5 8t38.5 4q74 0 97 -46t-14 -126q-17 -41 -51 -71t-75.5 -50.5t-83.5 -29.5t-75 -9q-51 0 -97 9t-82 32z M241.5 310.5q15.5 101.5 69.5 221.5q61 137 139 241t169 173.5t191.5 104t202.5 34.5q152 0 212 -77.5t50 -210.5l-126 -31q0 92 -36 156.5t-142 64.5q-76 0 -149 -24.5t-141.5 -79t-131 -141.5t-116.5 -210q-46 -102 -61 -186t2.5 -143.5t64.5 -92t127 -32.5 q115 0 210.5 58.5t207.5 162.5l78 -47q-58 -57 -121.5 -106.5t-131 -86t-138.5 -58t-147 -21.5q-113 0 -180.5 40.5t-92.5 114.5t-9.5 175.5z" />
<glyph unicode="&#xe8;" horiz-adv-x="1024" d="M248 116q-63 136 63 416q54 123 130 225.5t164.5 175.5t187.5 112.5t200 39.5q109 0 171.5 -40.5t81.5 -114.5t0 -176.5t-74 -225.5h-742q-40 -90 -56 -172t-2 -143t62 -98t138 -37q53 0 97.5 10t91 34.5t98.5 65.5t121 105l77 -53q-74 -70 -138.5 -120t-128 -81 t-129 -45t-141.5 -14q-209 0 -272 136zM475 627h618q55 166 23 262t-170 98q-82 0 -156.5 -36t-136.5 -90t-108 -117.5t-70 -116.5zM907 1466h158l100 -282h-104z" />
<glyph unicode="&#xe9;" horiz-adv-x="1024" d="M248 116q-63 136 63 416q54 123 130 225.5t164.5 175.5t187.5 112.5t200 39.5q109 0 171.5 -40.5t81.5 -114.5t0 -176.5t-74 -225.5h-742q-40 -90 -56 -172t-2 -143t62 -98t138 -37q53 0 97.5 10t91 34.5t98.5 65.5t121 105l77 -53q-74 -70 -138.5 -120t-128 -81 t-129 -45t-141.5 -14q-209 0 -272 136zM475 627h618q55 166 23 262t-170 98q-82 0 -156.5 -36t-136.5 -90t-108 -117.5t-70 -116.5zM907 1184l354 282h158l-407 -282h-105z" />
<glyph unicode="&#xea;" horiz-adv-x="1024" d="M248 116q-63 136 63 416q54 123 130 225.5t164.5 175.5t187.5 112.5t200 39.5q109 0 171.5 -40.5t81.5 -114.5t0 -176.5t-74 -225.5h-742q-40 -90 -56 -172t-2 -143t62 -98t138 -37q53 0 97.5 10t91 34.5t98.5 65.5t121 105l77 -53q-74 -70 -138.5 -120t-128 -81 t-129 -45t-141.5 -14q-209 0 -272 136zM475 627h618q55 166 23 262t-170 98q-82 0 -156.5 -36t-136.5 -90t-108 -117.5t-70 -116.5zM733 1184l360 282h140l107 -282h-136l-74 207l-261 -207h-136z" />
<glyph unicode="&#xeb;" horiz-adv-x="1024" d="M248 116q-63 136 63 416q54 123 130 225.5t164.5 175.5t187.5 112.5t200 39.5q109 0 171.5 -40.5t81.5 -114.5t0 -176.5t-74 -225.5h-742q-40 -90 -56 -172t-2 -143t62 -98t138 -37q53 0 97.5 10t91 34.5t98.5 65.5t121 105l77 -53q-74 -70 -138.5 -120t-128 -81 t-129 -45t-141.5 -14q-209 0 -272 136zM475 627h618q55 166 23 262t-170 98q-82 0 -156.5 -36t-136.5 -90t-108 -117.5t-70 -116.5zM818 1204l86 193h135l-86 -193h-135zM1138 1204l86 193h135l-86 -193h-135z" />
<glyph unicode="&#xec;" horiz-adv-x="454" d="M166 0l471 1065h123l-471 -1065h-123zM622 1466h158l100 -282h-104z" />
<glyph unicode="&#xed;" horiz-adv-x="454" d="M166 0l471 1065h123l-471 -1065h-123zM622 1184l354 282h158l-407 -282h-105z" />
<glyph unicode="&#xee;" horiz-adv-x="454" d="M166 0l471 1065h123l-471 -1065h-123zM448 1184l360 282h140l107 -282h-136l-74 207l-261 -207h-136z" />
<glyph unicode="&#xef;" horiz-adv-x="454" d="M166 0l471 1065h123l-471 -1065h-123zM533 1204l86 193h135l-86 -193h-135zM853 1204l86 193h135l-86 -193h-135z" />
<glyph unicode="&#xf0;" horiz-adv-x="1024" d="M168 324.5q0 99.5 25 207.5q23 109 66.5 208.5t112 176t163 122.5t217.5 46q121 0 194 -45l4 4q-33 106 -94 199l-233 -108l-39 82l213 100q-55 61 -125 108l121 54q35 -27 64.5 -53.5t53.5 -55.5l234 109l39 -82l-213 -101q61 -86 92 -179t39 -190.5t-2 -196.5t-31 -198 q-25 -109 -69 -208t-111.5 -175.5t-161.5 -122.5t-219 -46t-198.5 46t-107.5 122.5t-34 176zM315 532q-49 -217 0.5 -335.5t212.5 -118.5q166 0 267.5 118.5t150.5 335.5q47 217 -1 336t-214 119t-267.5 -118.5t-148.5 -336.5z" />
<glyph unicode="&#xf1;" d="M168 0l471 1065h123l-74 -168q126 90 228.5 139t219.5 49q168 0 201.5 -92t-43.5 -266l-323 -727h-123l317 715q60 133 43.5 202.5t-139.5 69.5q-49 0 -96.5 -14.5t-97 -41t-107.5 -63.5t-129 -84l-348 -784h-123zM769 1206q18 35 47.5 71t66 64.5t75.5 46t78 17.5 t71 -14.5t61 -30.5q32 -16 60.5 -30.5t61.5 -14.5q43 0 78 31.5t58 68.5h78q-23 -39 -51.5 -74.5t-61 -63.5t-72 -44t-84.5 -16q-33 0 -64.5 15t-62.5 32q-31 16 -61 30.5t-58 14.5q-45 0 -82 -32t-60 -71h-78z" />
<glyph unicode="&#xf2;" horiz-adv-x="1024" d="M235 148.5q-17 76.5 5 176t71 207.5q47 109 112.5 208.5t151 176t190.5 122.5t228 46q125 0 188 -46t81 -122.5t-5 -176t-70 -208.5q-49 -109 -115 -208t-150.5 -175.5t-188.5 -122.5t-229 -46t-188.5 46t-80.5 122.5zM359 196.5q23 -118.5 186 -118.5q166 0 294 118.5 t225 335.5q95 217 73.5 336t-187.5 119t-294 -118.5t-223 -336.5q-97 -217 -74 -335.5zM896 1466h158l100 -282h-104z" />
<glyph unicode="&#xf3;" horiz-adv-x="1024" d="M235 148.5q-17 76.5 5 176t71 207.5q47 109 112.5 208.5t151 176t190.5 122.5t228 46q125 0 188 -46t81 -122.5t-5 -176t-70 -208.5q-49 -109 -115 -208t-150.5 -175.5t-188.5 -122.5t-229 -46t-188.5 46t-80.5 122.5zM359 196.5q23 -118.5 186 -118.5q166 0 294 118.5 t225 335.5q95 217 73.5 336t-187.5 119t-294 -118.5t-223 -336.5q-97 -217 -74 -335.5zM896 1184l354 282h158l-407 -282h-105z" />
<glyph unicode="&#xf4;" horiz-adv-x="1024" d="M235 148.5q-17 76.5 5 176t71 207.5q47 109 112.5 208.5t151 176t190.5 122.5t228 46q125 0 188 -46t81 -122.5t-5 -176t-70 -208.5q-49 -109 -115 -208t-150.5 -175.5t-188.5 -122.5t-229 -46t-188.5 46t-80.5 122.5zM359 196.5q23 -118.5 186 -118.5q166 0 294 118.5 t225 335.5q95 217 73.5 336t-187.5 119t-294 -118.5t-223 -336.5q-97 -217 -74 -335.5zM722 1184l360 282h140l107 -282h-136l-74 207l-261 -207h-136z" />
<glyph unicode="&#xf5;" horiz-adv-x="1024" d="M235 148.5q-17 76.5 5 176t71 207.5q47 109 112.5 208.5t151 176t190.5 122.5t228 46q125 0 188 -46t81 -122.5t-5 -176t-70 -208.5q-49 -109 -115 -208t-150.5 -175.5t-188.5 -122.5t-229 -46t-188.5 46t-80.5 122.5zM359 196.5q23 -118.5 186 -118.5q166 0 294 118.5 t225 335.5q95 217 73.5 336t-187.5 119t-294 -118.5t-223 -336.5q-97 -217 -74 -335.5zM715 1206q18 35 47.5 71t66 64.5t75.5 46t78 17.5t71 -14.5t61 -30.5q32 -16 60.5 -30.5t61.5 -14.5q43 0 78 31.5t58 68.5h78q-23 -39 -51.5 -74.5t-61 -63.5t-72 -44t-84.5 -16 q-33 0 -64.5 15t-62.5 32q-31 16 -61 30.5t-58 14.5q-45 0 -82 -32t-60 -71h-78z" />
<glyph unicode="&#xf6;" horiz-adv-x="1024" d="M235 148.5q-17 76.5 5 176t71 207.5q47 109 112.5 208.5t151 176t190.5 122.5t228 46q125 0 188 -46t81 -122.5t-5 -176t-70 -208.5q-49 -109 -115 -208t-150.5 -175.5t-188.5 -122.5t-229 -46t-188.5 46t-80.5 122.5zM359 196.5q23 -118.5 186 -118.5q166 0 294 118.5 t225 335.5q95 217 73.5 336t-187.5 119t-294 -118.5t-223 -336.5q-97 -217 -74 -335.5zM807 1204l86 193h135l-86 -193h-135zM1127 1204l86 193h135l-86 -193h-135z" />
<glyph unicode="&#xf7;" horiz-adv-x="1228" d="M188 477l25 111h1065l-25 -111h-1065zM518 88q10 47 52 82t89 35q49 0 76 -35t17 -82q-12 -47 -54.5 -82t-89.5 -35t-74.5 35t-15.5 82zM715 977q10 47 52 82t89 35q49 0 75.5 -35t16.5 -82t-52 -82t-91 -35q-47 0 -73.5 35t-16.5 82z" />
<glyph unicode="&#xf8;" horiz-adv-x="1024" d="M-8 -164l229 275q-51 78 -54 188.5t26 232.5q23 109 66.5 208.5t112 176t163 122.5t217.5 46q145 0 227 -67l176 211h117l-232 -277q49 -78 52.5 -187.5t-23.5 -232.5q-25 -109 -69 -208t-111.5 -175.5t-161.5 -122.5t-219 -46q-147 0 -225 67l-177 -211h-114zM309 217 l594 709q-59 61 -172 61q-166 0 -267.5 -118.5t-148.5 -336.5q-47 -205 -6 -315zM358 137q59 -59 170 -59q166 0 267.5 118.5t150.5 335.5q45 207 6 314z" />
<glyph unicode="&#xf9;" d="M274 72q-33 92 45 266l320 727h123l-315 -715q-59 -133 -44 -202.5t138 -69.5q49 0 96.5 14t97.5 41t108.5 65t127.5 83l348 784h123l-471 -1065h-123l74 168q-123 -88 -226.5 -138t-220.5 -50q-168 0 -201 92zM964 1466h158l100 -282h-104z" />
<glyph unicode="&#xfa;" d="M274 72q-33 92 45 266l320 727h123l-315 -715q-59 -133 -44 -202.5t138 -69.5q49 0 96.5 14t97.5 41t108.5 65t127.5 83l348 784h123l-471 -1065h-123l74 168q-123 -88 -226.5 -138t-220.5 -50q-168 0 -201 92zM964 1184l354 282h158l-407 -282h-105z" />
<glyph unicode="&#xfb;" d="M274 72q-33 92 45 266l320 727h123l-315 -715q-59 -133 -44 -202.5t138 -69.5q49 0 96.5 14t97.5 41t108.5 65t127.5 83l348 784h123l-471 -1065h-123l74 168q-123 -88 -226.5 -138t-220.5 -50q-168 0 -201 92zM790 1184l360 282h140l107 -282h-136l-74 207l-261 -207 h-136z" />
<glyph unicode="&#xfc;" d="M274 72q-33 92 45 266l320 727h123l-315 -715q-59 -133 -44 -202.5t138 -69.5q49 0 96.5 14t97.5 41t108.5 65t127.5 83l348 784h123l-471 -1065h-123l74 168q-123 -88 -226.5 -138t-220.5 -50q-168 0 -201 92zM875 1204l86 193h135l-86 -193h-135zM1195 1204l86 193h135 l-86 -193h-135z" />
<glyph unicode="&#xfd;" horiz-adv-x="909" d="M-128 -365l42 101q29 -4 55 -9.5t63 -5.5q63 0 157.5 66t213.5 229l93 1049h135l-89 -866h4l679 866h131l-902 -1141q-62 -78 -116.5 -135t-110 -94t-116 -54.5t-132.5 -17.5q-39 0 -64.5 3t-42.5 9zM849 1184l354 282h158l-407 -282h-105z" />
<glyph unicode="&#xfe;" d="M104 -377l412 1856h123l-127 -578h4q84 92 171 138t190 46q104 0 173.5 -46t106.5 -123.5t43 -178t-18 -211.5q-31 -139 -84.5 -241.5t-124 -170t-155.5 -101t-177 -33.5q-109 0 -173.5 37.5t-125.5 121.5l-115 -516h-123zM371 268q10 -27 34.5 -59.5t59.5 -62t77 -49 t87 -19.5q168 0 276.5 124t157.5 347q18 84 17 163t-25.5 140t-74.5 98t-130 37q-102 0 -184 -55t-179 -139z" />
<glyph unicode="&#xff;" horiz-adv-x="909" d="M-128 -365l42 101q29 -4 55 -9.5t63 -5.5q63 0 157.5 66t213.5 229l93 1049h135l-89 -866h4l679 866h131l-902 -1141q-62 -78 -116.5 -135t-110 -94t-116 -54.5t-132.5 -17.5q-39 0 -64.5 3t-42.5 9zM760 1204l86 193h135l-86 -193h-135zM1080 1204l86 193h135l-86 -193 h-135z" />
<glyph unicode="&#x152;" horiz-adv-x="2048" d="M230.5 431q-5.5 140 31.5 308q35 156 107.5 294t178 241.5t242 164t300.5 60.5q43 0 93 -3t100 -7t96 -7t79 -3h797l-25 -111h-698l-121 -545h500l-25 -110h-500l-133 -602h738l-25 -111h-827q-102 0 -205 -10t-180 -10q-178 0 -291 55t-170 155.5t-62.5 240.5zM397 739 q-70 -311 27.5 -480t398.5 -169q147 0 230.5 53.5t105.5 151.5l197 889q23 98 -36.5 151.5t-209.5 53.5q-143 0 -261 -47.5t-207 -132.5t-150.5 -204.5t-94.5 -265.5z" />
<glyph unicode="&#x153;" horiz-adv-x="1705" d="M167 324.5q1 99.5 26 207.5q23 109 66.5 208.5t111 176t160 122.5t212.5 46q139 0 211 -66.5t90 -164.5q27 41 65 83t89 74.5t113.5 53t136.5 20.5q106 0 175 -40.5t103.5 -114.5t36.5 -176.5t-26 -225.5h-699q-20 -90 -23 -172t18.5 -143t70.5 -98t133 -37q53 0 95 10 t83 34.5t84 65.5t98 105l89 -53q-59 -70 -112.5 -120t-110 -81t-119 -45t-138.5 -14q-131 0 -203.5 58t-103.5 175q-66 -98 -163 -165.5t-236 -67.5q-121 0 -194 46t-106.5 122.5t-32.5 176zM314 196.5q48 -118.5 206 -118.5q152 0 250 118.5t148 335.5q47 217 0.5 336 t-195.5 119q-160 0 -260.5 -119t-147.5 -336q-49 -217 -1 -335.5zM1061 627h575q18 164 -27.5 262t-183.5 98q-74 0 -132 -28.5t-103 -78t-77 -115t-52 -138.5z" />
<glyph unicode="&#x178;" d="M494 0l278 627l-75 852h151l41 -731l713 731h151l-846 -852l-278 -627h-135zM955 1571l86 193h135l-86 -193h-135zM1275 1571l86 193h135l-86 -193h-135z" />
<glyph unicode="&#x2c6;" horiz-adv-x="454" d="M186 1184l297 282h140l170 -282h-136l-120 207l-215 -207h-136z" />
<glyph unicode="&#x2dc;" horiz-adv-x="454" d="M174 1206q10 35 31.5 71t51.5 64.5t65.5 46t74.5 17.5t74 -14.5t68 -30.5q35 -16 66.5 -30.5t64.5 -14.5q43 0 71.5 31.5t42.5 68.5h78q-14 -39 -34.5 -74.5t-47 -63.5t-62.5 -44t-81 -16q-33 0 -67.5 15t-69.5 32q-35 16 -68 30.5t-61 14.5q-45 0 -75 -32t-44 -71h-78z " />
<glyph unicode="&#x2000;" horiz-adv-x="976" />
<glyph unicode="&#x2001;" horiz-adv-x="1952" />
<glyph unicode="&#x2002;" horiz-adv-x="976" />
<glyph unicode="&#x2003;" horiz-adv-x="1952" />
<glyph unicode="&#x2004;" horiz-adv-x="650" />
<glyph unicode="&#x2005;" horiz-adv-x="488" />
<glyph unicode="&#x2006;" horiz-adv-x="325" />
<glyph unicode="&#x2007;" horiz-adv-x="325" />
<glyph unicode="&#x2008;" horiz-adv-x="244" />
<glyph unicode="&#x2009;" horiz-adv-x="390" />
<glyph unicode="&#x200a;" horiz-adv-x="108" />
<glyph unicode="&#x2010;" horiz-adv-x="681" d="M193 477l24 111h510l-25 -111h-509z" />
<glyph unicode="&#x2011;" horiz-adv-x="681" d="M193 477l24 111h510l-25 -111h-509z" />
<glyph unicode="&#x2012;" horiz-adv-x="681" d="M193 477l24 111h510l-25 -111h-509z" />
<glyph unicode="&#x2013;" horiz-adv-x="1024" d="M109 487l20 91h1024l-20 -91h-1024z" />
<glyph unicode="&#x2014;" horiz-adv-x="2048" d="M109 487l20 91h2048l-20 -91h-2048z" />
<glyph unicode="&#x2018;" horiz-adv-x="454" d="M346 1008l41 184l197 307h80l-187 -307h86l-41 -184h-176z" />
<glyph unicode="&#x2019;" horiz-adv-x="454" d="M342 987l186 307h-86l41 185h176l-41 -185l-196 -307h-80z" />
<glyph unicode="&#x201a;" horiz-adv-x="454" d="M55 -307l187 307h-86l41 184h176l-41 -184l-197 -307h-80z" />
<glyph unicode="&#x201c;" horiz-adv-x="909" d="M422 1008l41 184l196 307h80l-186 -307h86l-41 -184h-176zM764 1008l41 184l196 307h80l-186 -307h86l-41 -184h-176z" />
<glyph unicode="&#x201d;" horiz-adv-x="909" d="M379 987l186 307h-86l41 185h176l-41 -185l-196 -307h-80zM721 987l186 307h-86l41 185h176l-41 -185l-196 -307h-80z" />
<glyph unicode="&#x201e;" horiz-adv-x="909" d="M92 -307l187 307h-86l40 184h177l-41 -184l-197 -307h-80zM434 -307l187 307h-86l40 184h177l-41 -184l-197 -307h-80z" />
<glyph unicode="&#x2022;" horiz-adv-x="1024" d="M302 595.5q-13 67.5 3 143.5q16 78 60.5 144.5t105.5 117t134 79t151 28.5q76 0 137 -28.5t100 -79t53.5 -117t-2.5 -144.5q-16 -76 -60 -143.5t-105.5 -118.5t-136 -79.5t-150.5 -28.5q-78 0 -138.5 28.5t-99.5 79.5t-52 118.5z" />
<glyph unicode="&#x2026;" horiz-adv-x="2048" d="M254 0l41 184h176l-41 -184h-176zM936 0l41 184h176l-41 -184h-176zM1618 0l41 184h176l-41 -184h-176z" />
<glyph unicode="&#x202f;" horiz-adv-x="390" />
<glyph unicode="&#x2039;" horiz-adv-x="681" d="M250 537l317 311h135l-323 -311l182 -320h-135z" />
<glyph unicode="&#x203a;" horiz-adv-x="681" d="M215 217l324 311l-183 320h136l176 -320l-318 -311h-135z" />
<glyph unicode="&#x205f;" horiz-adv-x="488" />
<glyph unicode="&#x2122;" horiz-adv-x="2027" d="M418 1389l20 90h656l-21 -90h-272l-166 -754h-103l166 754h-280zM1059 635l186 844h174l123 -672l414 672h174l-186 -844h-103l166 754h-4l-471 -754h-62l-139 754h-4l-166 -754h-102z" />
<glyph unicode="&#x25fc;" horiz-adv-x="1064" d="M0 0v1065h1065v-1065h-1065z" />
<glyph unicode="&#xfb01;" horiz-adv-x="1024" d="M197 0l215 967h-176l20 98h176l35 152q31 139 105.5 210.5t211.5 71.5q35 0 67 -5t64 -11l-24 -103q-27 10 -54.5 15.5t-60.5 5.5q-74 0 -119 -39t-65 -131l-37 -166h217l-20 -98h-217l-216 -967h-122zM735 0l236 1065h123l-236 -1065h-123zM1024 1298l39 181h123 l-39 -181h-123z" />
<glyph unicode="&#xfb02;" horiz-adv-x="1024" d="M197 0l215 967h-176l20 98h176l35 152q31 139 105.5 210.5t211.5 71.5q35 0 67 -5t64 -11l-24 -103q-27 10 -54.5 15.5t-60.5 5.5q-74 0 -119 -39t-65 -131l-37 -166h217l-20 -98h-217l-216 -967h-122zM735 0l328 1479h123l-328 -1479h-123z" />
</font>
</defs>
</svg>
